<?xml version="1.0" standalone="no"?>
<!DOCTYPE svg PUBLIC "-//W3C//DTD SVG 1.1//EN" "http://www.w3.org/Graphics/SVG/1.1/DTD/svg11.dtd" >
<svg xmlns="http://www.w3.org/2000/svg">
<metadata>Generated by IcoMoon</metadata>
<defs>
<font id="Material-Iconokenty" horiz-adv-x="1024">
<font-face units-per-em="1024" ascent="1024" descent="0" />
<missing-glyph horiz-adv-x="1024" />
<glyph unicode="&#x20;" horiz-adv-x="0" d="" />
<glyph unicode="&#xe900;" glyph-name="search_more" d="M672.213 415.787h-33.92l-11.755 11.733c41.835 48.448 67.008 111.36 67.008 180.267 0 153.173-124.16 277.333-277.333 277.333s-277.333-124.16-277.333-277.333 124.16-277.333 277.333-277.333c68.907 0 131.84 25.173 180.267 66.773l11.733-11.733v-33.707l213.333-212.907 63.573 63.573-212.907 213.333zM416.213 415.787c-106.027 0-192 85.952-192 192s85.973 192 192 192 192-85.952 192-192-85.973-192-192-192zM288.213 224.213c-23.467 0-42.667-19.2-42.667-42.667s19.2-42.667 42.667-42.667 42.667 19.2 42.667 42.667-19.2 42.667-42.667 42.667zM544.213 224.213c-23.467 0-42.667-19.2-42.667-42.667s19.2-42.667 42.667-42.667 42.667 19.2 42.667 42.667-19.221 42.667-42.667 42.667zM416.213 224.213c-23.467 0-42.667-19.2-42.667-42.667s19.2-42.667 42.667-42.667c23.467 0 42.667 19.2 42.667 42.667s-19.221 42.667-42.667 42.667z" />
<glyph unicode="&#xe901;" glyph-name="parent_collapsed" d="M810.667 810.667v-597.333h-597.333v597.333h597.333zM810.667 896h-597.333c-47.147 0-85.333-38.187-85.333-85.333v-597.333c0-47.147 38.187-85.333 85.333-85.333h597.333c47.147 0 85.333 38.187 85.333 85.333v597.333c0 47.147-38.187 85.333-85.333 85.333zM554.667 554.667v149.333h-85.333v-149.333h-149.333v-85.333h149.333v-149.333h85.333v149.333h149.333v85.333z" />
<glyph unicode="&#xe902;" glyph-name="parent_checked_collapsed" d="M810.667 896h-597.333c-47.147 0-85.333-38.187-85.333-85.333v-597.333c0-47.147 38.187-85.333 85.333-85.333h597.333c47.147 0 85.333 38.187 85.333 85.333v597.333c0 47.147-38.187 85.333-85.333 85.333zM704 469.333h-149.333v-149.333h-85.333v149.333h-149.333v85.333h149.333v149.333h85.333v-149.333h149.333v-85.333z" />
<glyph unicode="&#xe903;" glyph-name="view_bottom" d="M853.333 853.333h-682.667c-47.125 0-85.333-38.208-85.333-85.333v-512c0-47.125 38.208-85.333 85.333-85.333h682.667c47.125 0 85.333 38.208 85.333 85.333v512c0 47.125-38.208 85.333-85.333 85.333zM853.333 682.667v-170.667h-682.667v256h682.667v-85.333z" />
<glyph unicode="&#xe904;" glyph-name="view_right" d="M853.333 853.333h-682.667c-47.125 0-85.333-38.208-85.333-85.333v-512c0-47.125 38.208-85.333 85.333-85.333h682.667c47.125 0 85.333 38.208 85.333 85.333v512c0 47.125-38.208 85.333-85.333 85.333zM170.667 256v512h341.333v-512h-341.333z" />
<glyph unicode="&#xe905;" glyph-name="chevron_left_outline" d="M628.117 666.219l-60.352 60.331-214.549-214.549 214.549-214.549 60.352 60.331-154.219 154.219zM512 853.333c188.203 0 341.333-153.131 341.333-341.333s-153.131-341.333-341.333-341.333-341.333 153.131-341.333 341.333 153.131 341.333 341.333 341.333zM512 938.667c-235.627 0-426.667-191.040-426.667-426.667s191.040-426.667 426.667-426.667 426.667 191.040 426.667 426.667-191.040 426.667-426.667 426.667v0z" />
<glyph unicode="&#xe906;" glyph-name="chevron_right_outline" d="M395.883 666.219l60.352 60.331 214.549-214.549-214.549-214.549-60.352 60.331 154.197 154.219zM512 853.333c188.203 0 341.333-153.131 341.333-341.333s-153.131-341.333-341.333-341.333-341.333 153.131-341.333 341.333 153.131 341.333 341.333 341.333zM512 938.667c-235.627 0-426.667-191.040-426.667-426.667s191.040-426.667 426.667-426.667 426.667 191.040 426.667 426.667-191.040 426.667-426.667 426.667v0z" />
<glyph unicode="&#xe907;" glyph-name="parent_expanded" d="M810.667 810.667v-597.333h-597.333v597.333h597.333zM810.667 896h-597.333c-47.147 0-85.333-38.187-85.333-85.333v-597.333c0-47.147 38.187-85.333 85.333-85.333h597.333c47.147 0 85.333 38.187 85.333 85.333v597.333c0 47.147-38.187 85.333-85.333 85.333zM469.333 554.667h-149.333v-85.333h384v85.333h-149.333z" />
<glyph unicode="&#xe908;" glyph-name="parent_checked_expanded" d="M810.667 896h-597.333c-47.147 0-85.333-38.187-85.333-85.333v-597.333c0-47.147 38.187-85.333 85.333-85.333h597.333c47.147 0 85.333 38.187 85.333 85.333v597.333c0 47.147-38.187 85.333-85.333 85.333zM704 469.333h-384v85.333h384v-85.333z" />
<glyph unicode="&#xe90a;" glyph-name="hierarchy" d="M896 682.667v85.333h-768v-85.333h213.333v-213.333h213.333v-213.333h341.333v85.333h-256v128h256v85.333h-469.333v128z" />
<glyph unicode="&#xe90b;" glyph-name="call_list" d="M938.667 725.333h-851.911v-85.333h851.911v85.333zM163.639 416.424c29.023-57.039 75.783-103.597 132.822-132.822l44.341 44.341c5.442 5.442 13.504 7.256 20.558 4.837 22.574-7.457 46.961-11.488 71.953-11.488 11.085 0 20.155-9.070 20.155-20.155v-70.341c0-11.085-9.070-20.155-20.155-20.155-189.256 0-342.636 153.38-342.636 342.636 0 11.085 9.070 20.155 20.155 20.155h70.543c11.085 0 20.155-9.070 20.155-20.155 0-25.194 4.031-49.38 11.488-71.953 2.217-7.054 0.605-14.915-5.039-20.558l-44.34-44.341zM938.005 469.333h-661.487l1.103 85.333h660.385v-85.333zM515.35 298.667h421.119v85.333h-421.119v-85.333z" />
<glyph unicode="&#xe90c;" glyph-name="3d_rotation" d="M512 1024c268 0 488-206 510-468h-64c-14 160-114 294-254 360l-58-56-162 162zM706 520c0 69.871-27.338 114-94 114h-40v-246h38c51.287 0 80.544 27.904 92 68 4 14 4 30 4 48v16zM612 682c76.364 0 121.865-38.664 144-94 8-20 10-44 10-68v-16c0-52.811-15.142-91.142-42-118-26.824-26.824-61.104-44-114-44h-98v340h100zM414 516c30.607-12.243 56-36.493 56-78 0-16-4-28-10-40s-12-24-22-32c-18.756-15.005-47.096-24-80-24-62.192 0-108 31.488-108 94h54c0-30.904 23.204-50 54-50 35.74 0 56 17.079 56 54 0 37.687-24.79 54-62 54h-32v44h32c34.608 0 58 16.061 58 50 0 33.049-17.68 50-52 50-28.888 0-50-17.163-50-46h-56c0 29.787 15.103 49.103 30 64 19.854 15.883 41.797 26 76 26 51.295 0 80.772-19.544 98-54 6-12 8-24 8-40 0-36.376-24.671-59.335-50-72zM320 108l58 56 162-162-28-2c-268 0-488 208-510 470h64c16-160 114-296 254-362z" />
<glyph unicode="&#xe90d;" glyph-name="ac_unit" d="M938 554v-84h-178l138-138-60-62-198 200h-86v-86l200-198-62-60-138 138v-178h-84v178l-138-138-62 60 200 198v86h-86l-198-200-60 62 138 138h-178v84h178l-138 138 60 62 198-200h86v86l-200 198 62 60 138-138v178h84v-178l138 138 62-60-200-198v-86h86l198 200 60-62-138-138h178z" />
<glyph unicode="&#xe90e;" glyph-name="alarm" d="M512 170c166 0 298 134 298 300s-132 298-298 298-298-132-298-298 132-300 298-300zM512 854c212 0 384-172 384-384s-172-384-384-384-384 172-384 384 172 384 384 384zM534 682v-224l170-100-32-52-202 120v256h64zM336 880l-196-164-54 64 196 164zM938 780l-54-66-196 166 54 64z" />
<glyph unicode="&#xe90f;" glyph-name="access_alarms" d="M512 170c166 0 298 134 298 300s-132 298-298 298-298-132-298-298 132-300 298-300zM512 854c214 0 384-170 384-384s-170-384-384-384-384 170-384 384 170 384 384 384zM534 682v-226l170-102-34-52-200 124v256h64zM338 878l-198-162-54 64 196 162zM938 780l-54-64-198 168 56 64z" />
<glyph unicode="&#xe910;" glyph-name="schedule" d="M534 726v-224l192-114-32-54-224 136v256h64zM512 170c188 0 342 154 342 342s-154 342-342 342-342-154-342-342 154-342 342-342zM512 938c236 0 426-190 426-426s-190-426-426-426-426 190-426 426 190 426 426 426z" />
<glyph unicode="&#xe911;" glyph-name="accessibility" d="M896 640h-256v-554h-86v256h-84v-256h-86v554h-256v86h768v-86zM512 938c46 0 86-38 86-84s-40-86-86-86-86 40-86 86 40 84 86 84z" />
<glyph unicode="&#xe912;" glyph-name="accessible" d="M548 256h88c-20-98-106-170-210-170-118 0-212 94-212 212 0 104 72 190 170 210v-88c-50-18-86-66-86-122 0-70 58-128 128-128 56 0 104 36 122 86zM426 636c0 59.978 66.716 113.020 128 78h2v-2c10-4 18-10 26-18l56-62c42-46 106-78 172-78v-84c-74 0-156 36-212 82v-146h128c46 0 84-40 84-86v-234h-84v212h-214c-46 0-86 40-86 86v252zM426 854c0 48 38 84 86 84s86-36 86-84-38-86-86-86-86 38-86 86z" />
<glyph unicode="&#xe913;" glyph-name="account_balance" d="M490 982l406-214v-86h-810v86zM682 598h128v-300h-128v300zM86 86v128h810v-128h-810zM426 598h128v-300h-128v300zM170 598h128v-300h-128v300z" />
<glyph unicode="&#xe914;" glyph-name="account_balance_wallet" d="M682 448c36 0 64 28 64 64s-28 64-64 64-64-28-64-64 28-64 64-64zM512 342v340h426v-340h-426zM896 256v-42c0-46-40-86-86-86h-596c-48 0-86 40-86 86v596c0 46 38 86 86 86h596c46 0 86-40 86-86v-42h-384c-48 0-86-40-86-86v-340c0-46 38-86 86-86h384z" />
<glyph unicode="&#xe915;" glyph-name="account_box" d="M256 298v-42h512v42c0 86-170 132-256 132s-256-46-256-132zM640 640c0 70-58 128-128 128s-128-58-128-128 58-128 128-128 128 58 128 128zM128 810c0 46 38 86 86 86h596c46 0 86-40 86-86v-596c0-46-40-86-86-86h-596c-48 0-86 40-86 86v596z" />
<glyph unicode="&#xe916;" glyph-name="account_circle" d="M512 204c106 0 200 56 256 138-2 84-172 132-256 132-86 0-254-48-256-132 56-82 150-138 256-138zM512 810c-70 0-128-58-128-128s58-128 128-128 128 58 128 128-58 128-128 128zM512 938c236 0 426-190 426-426s-190-426-426-426-426 190-426 426 190 426 426 426z" />
<glyph unicode="&#xe917;" glyph-name="adb" d="M640 640c24 0 42 18 42 42s-18 44-42 44-42-20-42-44 18-42 42-42zM384 640c24 0 42 18 42 42s-18 44-42 44-42-20-42-44 18-42 42-42zM688 838c74-54 122-142 122-240v-44h-596v44c0 98 48 186 122 240l-90 90 36 34 98-98c40 20 84 32 132 32s92-12 132-32l98 98 36-34zM214 342v170h596v-170c0-166-132-300-298-300s-298 134-298 300z" />
<glyph unicode="&#xe918;" glyph-name="add" d="M810 470h-256v-256h-84v256h-256v84h256v256h84v-256h256v-84z" />
<glyph unicode="&#xe919;" glyph-name="add_a_photo" d="M418 426c0 76 60 138 136 138s138-62 138-138-62-136-138-136-136 60-136 136zM554 214c118 0 214 94 214 212s-96 214-214 214-212-96-212-214 94-212 212-212zM256 598v128h128v128h298l78-86h136c46 0 86-40 86-86v-512c0-46-40-84-86-84h-682c-46 0-86 38-86 84v428h128zM128 854v128h86v-128h128v-86h-128v-128h-86v128h-128v86h128z" />
<glyph unicode="&#xe91a;" glyph-name="alarm_add" d="M554 640v-128h128v-86h-128v-128h-84v128h-128v86h128v128h84zM512 170c166 0 298 134 298 300s-132 298-298 298-298-132-298-298 132-300 298-300zM512 854c212 0 384-172 384-384s-172-384-384-384-384 172-384 384 172 384 384 384zM938 780l-54-66-196 166 54 64zM336 880l-196-164-54 64 196 164z" />
<glyph unicode="&#xe91b;" glyph-name="add_alert" d="M682 468v86h-128v128h-84v-128h-128v-86h128v-128h84v128h128zM806 306l90-90v-46h-768v46l90 90v248c0 138 96 256 226 286v30c0 38 30 68 68 68s68-30 68-68v-30c130-30 226-148 226-286v-248zM428 128h168c0-46-38-86-84-86s-84 40-84 86z" />
<glyph unicode="&#xe91c;" glyph-name="add_box" d="M726 470v84h-172v172h-84v-172h-172v-84h172v-172h84v172h172zM810 896c46 0 86-40 86-86v-596c0-46-40-86-86-86h-596c-48 0-86 40-86 86v596c0 46 38 86 86 86h596z" />
<glyph unicode="&#xe91d;" glyph-name="add_circle" d="M726 470v84h-172v172h-84v-172h-172v-84h172v-172h84v172h172zM512 938c236 0 426-190 426-426s-190-426-426-426-426 190-426 426 190 426 426 426z" />
<glyph unicode="&#xe91e;" glyph-name="control_point" d="M512 170c188 0 342 154 342 342s-154 342-342 342-342-154-342-342 154-342 342-342zM512 938c236 0 426-190 426-426s-190-426-426-426-426 190-426 426 190 426 426 426zM554 726v-172h172v-84h-172v-172h-84v172h-172v84h172v172h84z" />
<glyph unicode="&#xe91f;" glyph-name="add_location" d="M682 598v84h-128v128h-84v-128h-128v-84h128v-128h84v128h128zM512 938c164 0 298-134 298-298 0-224-298-554-298-554s-298 330-298 554c0 164 134 298 298 298z" />
<glyph unicode="&#xe920;" glyph-name="add_shopping_cart" d="M306 394c0-6 4-10 10-10h494v-86h-512c-46 0-84 40-84 86 0 14 4 28 10 40l58 106-154 324h-86v84h140c27.003-56.33 53.665-113.001 80-170 34.063-71.271 67.603-143.063 102-214h300c54.786 99.881 110.533 198.8 164 300l74-42-164-298c-14-26-42-44-74-44h-318l-38-70zM726 256c46 0 84-40 84-86s-38-84-84-84-86 38-86 84 40 86 86 86zM298 256c46 0 86-40 86-86s-40-84-86-84-84 38-84 84 38 86 84 86zM470 640v128h-128v86h128v128h84v-128h128v-86h-128v-128h-84z" />
<glyph unicode="&#xe921;" glyph-name="queue" d="M810 554v86h-170v170h-86v-170h-170v-86h170v-170h86v170h170zM854 938c46 0 84-38 84-84v-512c0-46-38-86-84-86h-512c-46 0-86 40-86 86v512c0 46 40 84 86 84h512zM170 768v-598h598v-84h-598c-46 0-84 38-84 84v598h84z" />
<glyph unicode="&#xe922;" glyph-name="add_to_queue" d="M682 598v-86h-128v-128h-84v128h-128v86h128v128h84v-128h128zM896 298v512h-768v-512h768zM896 896c46 0 86-38 86-86l-2-512c0-46-38-84-84-84h-214v-86h-340v86h-214c-48 0-86 38-86 84v512c0 48 38 86 86 86h768z" />
<glyph unicode="&#xe923;" glyph-name="adjust" d="M640 512c0-70-58-128-128-128s-128 58-128 128 58 128 128 128 128-58 128-128zM512 170c188 0 342 154 342 342s-154 342-342 342-342-154-342-342 154-342 342-342zM512 938c236 0 426-190 426-426s-190-426-426-426-426 190-426 426 190 426 426 426z" />
<glyph unicode="&#xe924;" glyph-name="airline_seat_flat" d="M304 508c-50-50-130-52-180-2s-52 130-2 180 130 52 180 2 52-130 2-180zM86 426h852v-84h-256v-86h-340v86h-256v84zM938 554v-84h-554v256h384c94 0 170-78 170-172z" />
<glyph unicode="&#xe925;" glyph-name="airline_seat_flat_angled" d="M312 588c-64-30-142-4-172 60s-4 142 60 172 142 4 172-60 4-142-60-172zM64 506l30 80 810-292-28-80-194 68v-68h-340v192zM950 414l-30-80-528 190 90 242 364-132c90-32 136-130 104-220z" />
<glyph unicode="&#xe926;" glyph-name="airline_seat_individual_suite" d="M810 726c94 0 172-78 172-172v-256h-940v428h86v-300h342v300h340zM298 470c-70 0-128 58-128 128s58 128 128 128 128-58 128-128-58-128-128-128z" />
<glyph unicode="&#xe927;" glyph-name="airline_seat_legroom_extra" d="M974 288c18-32 2-72-30-88l-158-72-146 298h-298c-70 0-128 58-128 128v342h256v-256h150c32 0 62-18 76-48l144-298 48 22c32 14 70 2 86-28zM170 512c0-70 58-128 128-128h256v-86h-256c-118 0-212 96-212 214v384h84v-384z" />
<glyph unicode="&#xe928;" glyph-name="airline_seat_legroom_normal" d="M874 256c36 0 64-28 64-64s-28-64-64-64h-192v298h-298c-70 0-128 58-128 128v342h256v-256h214c46 0 84-40 84-86v-298h64zM214 512c0-70 58-128 128-128h256v-86h-256c-118 0-214 96-214 214v384h86v-384z" />
<glyph unicode="&#xe929;" glyph-name="airline_seat_legroom_reduced" d="M214 512c0-70 58-128 128-128h170v-86h-170c-118 0-214 96-214 214v384h86v-384zM852 204c8-40-22-76-62-76h-192v128l42 170h-256c-70 0-128 58-128 128v342h256v-256h214c46 0 84-40 84-86l-84-298h60c32 0 60-22 66-52z" />
<glyph unicode="&#xe92a;" glyph-name="airline_seat_recline_extra" d="M692 384l246-192-64-64-162 128h-292c-62 0-114 44-126 104l-58 252c-8 52 26 102 78 112h2c30.359 4.337 56.628-4.102 74-18l70-54c54-42 130-68 200-54v-92c-80-14-152 14-220 52l44-174h208zM682 214v-86h-300c-106 0-196 76-212 180l-84 418h84l84-404c10-62 64-108 128-108h300zM228 784c-38 28-46 80-20 118s80 48 118 22c38-28 48-82 22-120-28-38-82-46-120-20z" />
<glyph unicode="&#xe92b;" glyph-name="airline_seat_recline_normal" d="M854 168l-62-62-150 150h-216c-70 0-128 58-128 128v246c0 52 44 96 96 96h2c29.673 0 54.798-16.798 70-32l60-66c46-50 130-86 200-86v-94c-82 0-176 44-236 94v-158h148zM256 342c0-70 58-128 128-128h256v-86h-256c-118 0-214 96-214 214v384h86v-384zM324 794c-34 34-34 86 0 120s86 34 120 0 34-86 0-120-86-34-120 0z" />
<glyph unicode="&#xe92c;" glyph-name="flight" d="M896 342l-342 106v-234l86-64v-64l-150 42-148-42v64l84 64v234l-340-106v84l340 214v234c0 36 28 64 64 64s64-28 64-64v-234l342-214v-84z" />
<glyph unicode="&#xe92d;" glyph-name="airplanemode_inactive" d="M128 800l54 54 672-672-54-54-246 244v-158l86-64v-64l-150 42-148-42v64l84 64v234l-340-106v84l254 160zM554 640l342-214v-84l-136 42-334 334v156c0 36 28 64 64 64s64-28 64-64v-234z" />
<glyph unicode="&#xe92e;" glyph-name="airplay" d="M896 896c46 0 86-40 86-86v-512c0-46-40-84-86-84h-170v84h170v512h-768v-512h170v-84h-170c-46 0-86 38-86 84v512c0 46 40 86 86 86h768zM256 86l256 256 256-256h-512z" />
<glyph unicode="&#xe92f;" glyph-name="airport_shuttle" d="M640 554h214l-172 172h-42v-172zM746 278c36 0 64 28 64 64s-28 64-64 64-64-28-64-64 28-64 64-64zM554 554v172h-170v-172h170zM256 278c36 0 64 28 64 64s-28 64-64 64-64-28-64-64 28-64 64-64zM128 554h170v172h-170v-172zM726 810l256-256v-212h-108c0-70-58-128-128-128s-128 58-128 128h-234c0-70-58-128-128-128s-128 58-128 128h-86v384c0 48 40 84 86 84h598z" />
<glyph unicode="&#xe930;" glyph-name="alarm_off" d="M342 884l-36-30-62 60 38 30zM702 240l-420 420c-42-52-68-118-68-190 0-166 132-300 298-300 72 0 138 28 190 70zM124 926c262.552-262.114 525.354-523.98 788-786l-54-54-94 94c-68-58-156-94-252-94-212 0-384 172-384 384 0 96 36 182 94 250l-34 34-48-40-60 62 48 38-58 58zM938 780l-54-66-196 166 54 64zM512 768c-36 0-70-6-102-18l-66 64c50 24 108 40 168 40 212 0 384-172 384-384 0-60-14-118-38-168l-66 64c12 32 18 68 18 104 0 166-132 298-298 298z" />
<glyph unicode="&#xe931;" glyph-name="alarm_on" d="M450 404l210 212 46-46-256-256-136 136 44 44zM512 170c166 0 298 134 298 300s-132 298-298 298-298-132-298-298 132-300 298-300zM512 854c212 0 384-172 384-384s-172-384-384-384-384 172-384 384 172 384 384 384zM336 880l-196-164-54 64 196 164zM938 780l-54-66-196 166 54 64z" />
<glyph unicode="&#xe932;" glyph-name="album" d="M512 554c24 0 42-18 42-42s-18-42-42-42-42 18-42 42 18 42 42 42zM512 320c106 0 192 86 192 192s-86 192-192 192-192-86-192-192 86-192 192-192zM512 938c236 0 426-190 426-426s-190-426-426-426-426 190-426 426 190 426 426 426z" />
<glyph unicode="&#xe933;" glyph-name="all_inclusive" d="M794 742c128 0 230-104 230-230s-102-230-230-230c-62 0-120 24-164 68l-54 48 64 56 50-42c30-30 66-44 104-44 80 0 144 64 144 144s-64 144-144 144c-38 0-74-14-102-42-60.266-53.067-120.945-105.722-180-160l-120-106c-42-42-100-66-162-66-128 0-230 104-230 230s102 230 230 230c62 0 120-24 164-68l54-48-66-56-48 42c-30 30-66 44-104 44-80 0-144-64-144-144s64-144 144-144c38 0 74 14 102 42 60.266 53.067 120.945 105.722 180 160l120 106c42 42 100 66 162 66z" />
<glyph unicode="&#xe934;" glyph-name="all_out" d="M686 340c90 90 90 240 0 330s-240 90-330 0-90-240 0-330 240-90 330 0zM732 716c116-116 116-306 0-422s-306-116-422 0-116 306 0 422 306 116 422 0zM180 676v170h170zM350 164h-170v170zM862 334v-170h-170zM692 846h170v-170z" />
<glyph unicode="&#xe935;" glyph-name="android" d="M640 810v44h-42v-44h42zM426 810v44h-42v-44h42zM662 932c64-46 106-122 106-206h-512c0 84 40 160 104 206l-56 56c-8 8-8 22 0 30s22 8 30 0l64-64c34 18 74 28 114 28s78-10 112-28l64 64c8 8 22 8 30 0s8-22 0-30zM874 682c36 0 64-28 64-64v-298c0-36-28-64-64-64s-64 28-64 64v298c0 36 28 64 64 64zM150 682c36 0 64-28 64-64v-298c0-36-28-64-64-64s-64 28-64 64v298c0 36 28 64 64 64zM256 256v426h512v-426c0-24-18-42-42-42h-44v-150c0-36-28-64-64-64s-64 28-64 64v150h-84v-150c0-36-28-64-64-64s-64 28-64 64v150h-44c-24 0-42 18-42 42z" />
<glyph unicode="&#xe936;" glyph-name="announcement" d="M554 384v86h-84v-86h84zM554 554v256h-84v-256h84zM854 938c46 0 84-38 84-84v-512c0-46-38-86-84-86h-598l-170-170v768c0 46 38 84 84 84h684z" />
<glyph unicode="&#xe937;" glyph-name="apps" d="M682 170v172h172v-172h-172zM682 426v172h172v-172h-172zM426 682v172h172v-172h-172zM682 854h172v-172h-172v172zM426 426v172h172v-172h-172zM170 426v172h172v-172h-172zM170 170v172h172v-172h-172zM426 170v172h172v-172h-172zM170 682v172h172v-172h-172z" />
<glyph unicode="&#xe938;" glyph-name="archive" d="M218 810h588l-40 44h-512zM512 278l234 234h-148v86h-172v-86h-148zM876 800c12-14 20-34 20-54v-532c0-46-40-86-86-86h-596c-46 0-86 40-86 86v532c0 20 8 40 20 54l58 72c12 14 30 24 50 24h512c20 0 38-10 50-24z" />
<glyph unicode="&#xe939;" glyph-name="arrow_back" d="M854 554v-84h-520l238-240-60-60-342 342 342 342 60-60-238-240h520z" />
<glyph unicode="&#xe93a;" glyph-name="arrow_downward" d="M854 512l-342-342-342 342 62 60 238-238v520h84v-520l240 238z" />
<glyph unicode="&#xe93b;" glyph-name="arrow_drop_down" d="M298 598h428l-214-214z" />
<glyph unicode="&#xe93c;" glyph-name="arrow_drop_down_circle" d="M512 426l170 172h-340zM512 938c236 0 426-190 426-426s-190-426-426-426-426 190-426 426 190 426 426 426z" />
<glyph unicode="&#xe93d;" glyph-name="arrow_drop_up" d="M298 426l214 214 214-214h-428z" />
<glyph unicode="&#xe93e;" glyph-name="arrow_forward" d="M512 854l342-342-342-342-60 60 238 240h-520v84h520l-238 240z" />
<glyph unicode="&#xe93f;" glyph-name="arrow_upward" d="M170 512l342 342 342-342-62-60-238 238v-520h-84v520l-240-238z" />
<glyph unicode="&#xe940;" glyph-name="art_track" d="M448 384l-96 128-74-96-54 64-74-96h298zM512 640v-256c0-46-40-86-86-86h-256c-46 0-84 40-84 86v256c0 46 38 86 84 86h256c46 0 86-40 86-86zM598 298v86h340v-86h-340zM938 726v-86h-340v86h340zM938 470h-340v84h340v-84z" />
<glyph unicode="&#xe941;" glyph-name="aspect_ratio" d="M896 212v600h-768v-600h768zM896 896c46 0 86-40 86-86v-596c0-46-40-86-86-86h-768c-46 0-86 40-86 86v596c0 46 40 86 86 86h768zM298 640v-128h-84v214h212v-86h-128zM810 512v-214h-212v86h128v128h84z" />
<glyph unicode="&#xe942;" glyph-name="poll" d="M726 298v172h-86v-172h86zM554 298v428h-84v-428h84zM384 298v300h-86v-300h86zM810 896c46 0 86-40 86-86v-596c0-46-40-86-86-86h-596c-46 0-86 40-86 86v596c0 46 40 86 86 86h596z" />
<glyph unicode="&#xe943;" glyph-name="assignment" d="M726 640v86h-428v-86h428zM726 470v84h-428v-84h428zM598 298v86h-300v-86h300zM512 896c-24 0-42-18-42-42s18-44 42-44 42 20 42 44-18 42-42 42zM810 896c46 0 86-40 86-86v-596c0-46-40-86-86-86h-596c-46 0-86 40-86 86v596c0 46 40 86 86 86h178c18 50 64 86 120 86s102-36 120-86h178z" />
<glyph unicode="&#xe944;" glyph-name="assignment_ind" d="M768 214v60c0 86-170 132-256 132s-256-46-256-132v-60h512zM512 726c-70 0-128-58-128-128s58-128 128-128 128 58 128 128-58 128-128 128zM512 896c-24 0-42-18-42-42s18-44 42-44 42 20 42 44-18 42-42 42zM810 896c46 0 86-40 86-86v-596c0-46-40-86-86-86h-596c-46 0-86 40-86 86v596c0 46 40 86 86 86h178c18 50 64 86 120 86s102-36 120-86h178z" />
<glyph unicode="&#xe945;" glyph-name="assignment_late" d="M512 810c24 0 42 20 42 44s-18 42-42 42-42-18-42-42 18-44 42-44zM554 426v256h-84v-256h84zM554 256v86h-84v-86h84zM810 896c46 0 86-40 86-86v-596c0-46-40-86-86-86h-596c-46 0-86 40-86 86v596c0 46 40 86 86 86h178c18 50 64 86 120 86s102-36 120-86h178z" />
<glyph unicode="&#xe946;" glyph-name="assignment_return" d="M682 384v170h-170v128l-214-212 214-214v128h170zM512 896c-24 0-42-18-42-42s18-44 42-44 42 20 42 44-18 42-42 42zM810 896c46 0 86-40 86-86v-596c0-46-40-86-86-86h-596c-46 0-86 40-86 86v596c0 46 40 86 86 86h178c18 50 64 86 120 86s102-36 120-86h178z" />
<glyph unicode="&#xe947;" glyph-name="assignment_returned" d="M512 256l214 214h-128v170h-172v-170h-128zM512 896c-24 0-42-18-42-42s18-44 42-44 42 20 42 44-18 42-42 42zM810 896c46 0 86-40 86-86v-596c0-46-40-86-86-86h-596c-46 0-86 40-86 86v596c0 46 40 86 86 86h178c18 50 64 86 120 86s102-36 120-86h178z" />
<glyph unicode="&#xe948;" glyph-name="assignment_turned_in" d="M426 298l342 342-60 60-282-280-110 110-60-60zM512 896c-24 0-42-18-42-42s18-44 42-44 42 20 42 44-18 42-42 42zM810 896c46 0 86-40 86-86v-596c0-46-40-86-86-86h-596c-46 0-86 40-86 86v596c0 46 40 86 86 86h178c18 50 64 86 120 86s102-36 120-86h178z" />
<glyph unicode="&#xe949;" glyph-name="assistant" d="M592 474l176 80-176 80-80 176-80-176-176-80 176-80 80-176zM810 938c46 0 86-38 86-84v-598c0-46-40-86-86-86h-170l-128-128-128 128h-170c-46 0-86 40-86 86v598c0 46 40 84 86 84h596z" />
<glyph unicode="&#xe94a;" glyph-name="flag" d="M614 768h240v-426h-300l-16 84h-240v-298h-84v726h384z" />
<glyph unicode="&#xe94b;" glyph-name="attach_file" d="M704 768h64v-490c0-130-104-236-234-236s-236 106-236 236v532c0 94 78 172 172 172s170-78 170-172v-448c0-58-48-106-106-106s-108 48-108 106v406h64v-406c0-24 20-42 44-42s42 18 42 42v448c0 58-48 108-106 108s-108-50-108-108v-532c0-94 78-172 172-172s170 78 170 172v490z" />
<glyph unicode="&#xe94c;" glyph-name="attach_money" d="M504 558c96-26 200-64 200-186 0-88-66-136-150-152v-92h-128v92c-82 18-150 70-156 164h94c4-50 38-90 126-90 94 0 116 46 116 76 0 40-22 78-128 104-120 28-200 78-200 176 0 82 66 136 148 154v92h128v-94c90-22 136-88 138-162h-94c-2 54-32 90-108 90-72 0-114-34-114-80 0-40 32-66 128-92z" />
<glyph unicode="&#xe94d;" glyph-name="attachment" d="M86 490c0 130 104 236 234 236h448c94 0 170-78 170-172s-76-170-170-170h-362c-58 0-108 48-108 106s50 108 108 108h320v-86h-324c-24 0-24-42 0-42h366c46 0 86 38 86 84s-40 86-86 86h-448c-82 0-150-68-150-150s68-148 150-148h406v-86h-406c-130 0-234 104-234 234z" />
<glyph unicode="&#xe94e;" glyph-name="audiotrack" d="M512 896h298v-128h-170v-470h-2c-10-96-92-170-190-170-106 0-192 86-192 192s86 192 192 192c22 0 44-4 64-12v396z" />
<glyph unicode="&#xe94f;" glyph-name="autorenew" d="M800 694c34-52 54-116 54-182 0-188-154-342-342-342v-128l-170 172 170 170v-128c142 0 256 114 256 256 0 44-12 84-30 120zM512 768c-142 0-256-114-256-256 0-44 10-84 30-120l-62-62c-34 52-54 116-54 182 0 188 154 342 342 342v128l170-172-170-170v128z" />
<glyph unicode="&#xe950;" glyph-name="av_timer" d="M256 512c0 24 18 42 42 42s44-18 44-42-20-42-44-42-42 18-42 42zM768 512c0-24-18-42-42-42s-44 18-44 42 20 42 44 42 42-18 42-42zM470 896h42c212 0 384-172 384-384s-172-384-384-384-384 172-384 384c0 126 60 236 154 306v2l290-290-60-60-232 230c-42-52-66-116-66-188 0-166 132-298 298-298s298 132 298 298c0 150-112 276-256 296v-82h-84v170zM470 298c0 24 18 44 42 44s42-20 42-44-18-42-42-42-42 18-42 42z" />
<glyph unicode="&#xe951;" glyph-name="backspace" d="M810 358l-152 154 152 154-60 60-152-154-154 154-60-60 154-154-154-154 60-60 154 154 152-154zM938 896c46 0 86-40 86-86v-596c0-46-40-86-86-86h-640c-30 0-52 16-68 38l-230 346 230 346c16 22 38 38 68 38h640z" />
<glyph unicode="&#xe952;" glyph-name="cloud_upload" d="M598 470h128l-214 212-214-212h128v-172h172v172zM826 596c110-8 198-100 198-212 0-118-96-214-214-214h-554c-142 0-256 114-256 256 0 132 100 240 228 254 54 102 160 174 284 174 156 0 284-110 314-258z" />
<glyph unicode="&#xe953;" glyph-name="battery_alert" d="M554 426v214h-84v-214h84zM554 256v86h-84v-86h84zM668 854c32 0 58-26 58-58v-654c0-32-26-56-58-56h-312c-32 0-58 24-58 56v654c0 32 26 58 58 58h70v84h172v-84h70z" />
<glyph unicode="&#xe954;" glyph-name="battery_charging_full" d="M470 170l170 320h-86v236l-170-320h86v-236zM668 854c32 0 58-26 58-58v-654c0-32-26-56-58-56h-312c-32 0-58 24-58 56v654c0 32 26 58 58 58h70v84h172v-84h70z" />
<glyph unicode="&#xe955;" glyph-name="battery_std" d="M668 854c32 0 58-26 58-58v-654c0-32-26-56-58-56h-312c-32 0-58 24-58 56v654c0 32 26 58 58 58h70v84h172v-84h70z" />
<glyph unicode="&#xe956;" glyph-name="battery_unknown" d="M610 482c18 18 30 44 30 72 0 70-58 128-128 128s-128-58-128-128h64c0 36 28 64 64 64s64-28 64-64c0-18-6-32-18-44l-40-40c-20-20-40-50-40-86h68c0 20 16 48 36 68 12 12 28 30 28 30zM552 258v82h-80v-82h80zM668 854c32 0 58-26 58-58v-654c0-32-26-56-58-56h-312c-32 0-58 24-58 56v654c0 32 26 58 58 58h70v84h172v-84h70z" />
<glyph unicode="&#xe957;" glyph-name="beach_access" d="M744 648c-133.701 133.701-319.17 177.803-486.874 122.374 127.568 14.55 291.962-51.462 424.874-184.374l-244-244c-132.912 132.912-198.924 297.306-184.374 424.874-55.43-167.705-11.327-353.174 122.374-486.874l-122-122c-167.908 167.908-168 441.7-0.275 609.724 0.259 2.212 0.333 2.291 2.551 2.551 168.024 167.725 441.816 167.633 609.724-0.275zM560 402l62 62 274-276-62-60z" />
<glyph unicode="&#xe958;" glyph-name="beenhere" d="M426 342l384 384-60 60-324-324-152 152-60-60zM810 982c46 0 86-40 86-86v-552c0-30-16-54-38-70l-346-232-346 232c-22 16-38 40-38 70v552c0 46 40 86 86 86h596z" />
<glyph unicode="&#xe959;" glyph-name="block" d="M512 170c188 0 342 154 342 342 0 78-26 152-72 210l-480-480c58-46 132-72 210-72zM170 512c0-78 26-152 72-210l480 480c-58 46-132 72-210 72-188 0-342-154-342-342zM512 938c236 0 426-190 426-426s-190-426-426-426-426 190-426 426 190 426 426 426z" />
<glyph unicode="&#xe95a;" glyph-name="bluetooth" d="M634 328l-80 82v-162zM554 776v-162l80 82zM756 696l-184-184 184-184-244-242h-42v324l-196-196-60 60 238 238-238 238 60 60 196-196v324h42z" />
<glyph unicode="&#xe95b;" glyph-name="bluetooth_searching" d="M550 328l-80 82v-162zM470 776v-162l80 82zM670 696l-184-184 184-184-244-242h-42v324l-196-196-60 60 238 238-238 238 60 60 196-196v324h42zM834 738c40-64 62-142 62-222 0-84-24-160-66-226l-50 50c26 52 42 110 42 172s-16 120-42 172zM608 512l98 98c12-30 20-64 20-98s-8-70-20-100z" />
<glyph unicode="&#xe95c;" glyph-name="bluetooth_connected" d="M810 598l86-86-86-86-84 86zM634 328l-80 82v-162zM554 776v-162l80 82zM756 696l-184-184 184-184-244-242h-42v324l-196-196-60 60 238 238-238 238 60 60 196-196v324h42zM298 512l-84-86-86 86 86 86z" />
<glyph unicode="&#xe95d;" glyph-name="bluetooth_disabled" d="M554 248l80 80-80 82v-162zM230 854l624-624-60-60-98 98-184-182h-42v324l-196-196-60 60 238 238-282 282zM554 776v-138l-84 86v214h42l244-242-130-130-60 60 68 70z" />
<glyph unicode="&#xe95e;" glyph-name="blur_circular" d="M598 470c24 0 42-20 42-44s-18-42-42-42-44 18-44 42 20 44 44 44zM598 320c12 0 20-10 20-22s-8-20-20-20-22 8-22 20 10 22 22 22zM512 170c188 0 342 154 342 342s-154 342-342 342-342-154-342-342 154-342 342-342zM512 938c236 0 426-190 426-426s-190-426-426-426-426 190-426 426 190 426 426 426zM726 618c12 0 20-8 20-20s-8-22-20-22-22 10-22 22 10 20 22 20zM726 448c12 0 20-10 20-22s-8-20-20-20-22 8-22 20 10 22 22 22zM598 704c-12 0-22 10-22 22s10 20 22 20 20-8 20-20-8-22-20-22zM598 640c24 0 42-18 42-42s-18-44-42-44-44 20-44 44 20 42 44 42zM426 704c-12 0-20 10-20 22s8 20 20 20 22-8 22-20-10-22-22-22zM298 448c12 0 22-10 22-22s-10-20-22-20-20 8-20 20 8 22 20 22zM426 320c12 0 22-10 22-22s-10-20-22-20-20 8-20 20 8 22 20 22zM298 618c12 0 22-8 22-20s-10-22-22-22-20 10-20 22 8 20 20 20zM426 470c24 0 44-20 44-44s-20-42-44-42-42 18-42 42 18 44 42 44zM426 640c24 0 44-18 44-42s-20-44-44-44-42 20-42 44 18 42 42 42z" />
<glyph unicode="&#xe95f;" glyph-name="blur_linear" d="M554 298c-24 0-42 20-42 44s18 42 42 42 44-18 44-42-20-44-44-44zM554 470c-24 0-42 18-42 42s18 42 42 42 44-18 44-42-20-42-44-42zM554 640c-24 0-42 18-42 42s18 44 42 44 44-20 44-44-20-42-44-42zM726 490c-12 0-22 10-22 22s10 22 22 22 20-10 20-22-8-22-20-22zM726 662c-12 0-22 8-22 20s10 22 22 22 20-10 20-22-8-20-20-20zM128 896h768v-86h-768v86zM726 320c-12 0-22 10-22 22s10 20 22 20 20-8 20-20-8-22-20-22zM384 298c-24 0-42 20-42 44s18 42 42 42 42-18 42-42-18-44-42-44zM214 448c-36 0-64 28-64 64s28 64 64 64 64-28 64-64-28-64-64-64zM214 618c-36 0-64 28-64 64s28 64 64 64 64-28 64-64-28-64-64-64zM128 128v86h768v-86h-768zM384 640c-24 0-42 18-42 42s18 44 42 44 42-20 42-44-18-42-42-42zM384 470c-24 0-42 18-42 42s18 42 42 42 42-18 42-42-18-42-42-42zM214 278c-36 0-64 28-64 64s28 64 64 64 64-28 64-64-28-64-64-64z" />
<glyph unicode="&#xe960;" glyph-name="blur_off" d="M128 448c12 0 22-10 22-22s-10-20-22-20-22 8-22 20 10 22 22 22zM256 298c24 0 42-18 42-42s-18-42-42-42-42 18-42 42 18 42 42 42zM426 150c12 0 22-10 22-22s-10-22-22-22-20 10-20 22 8 22 20 22zM128 618c12 0 22-8 22-20s-10-22-22-22-22 10-22 22 10 20 22 20zM256 470c24 0 42-20 42-44s-18-42-42-42-42 18-42 42 18 44 42 44zM896 448c12 0 22-10 22-22s-10-20-22-20-22 8-22 20 10 22 22 22zM426 298c24 0 44-18 44-42s-20-42-44-42-42 18-42 42 18 42 42 42zM106 800l54 54 694-694-56-54-160 162c2-4 2-8 2-12 0-24-18-42-42-42s-44 18-44 42 20 42 44 42c4 0 8 0 12-2l-120 120c-4-30-32-54-64-54-36 0-64 28-64 64 0 32 24 60 54 64l-120 120c2-4 2-8 2-12 0-24-18-44-42-44s-42 20-42 44 18 42 42 42l12-2zM598 150c12 0 20-10 20-22s-8-22-20-22-22 10-22 22 10 22 22 22zM768 726c-24 0-42 18-42 42s18 42 42 42 42-18 42-42-18-42-42-42zM768 554c-24 0-42 20-42 44s18 42 42 42 42-18 42-42-18-44-42-44zM768 384c-24 0-42 18-42 42s18 44 42 44 42-20 42-44-18-42-42-42zM426 726c-24 0-42 18-42 42s18 42 42 42 44-18 44-42-20-42-44-42zM896 576c-12 0-22 10-22 22s10 20 22 20 22-8 22-20-10-22-22-22zM426 874c-12 0-20 10-20 22s8 22 20 22 22-10 22-22-10-22-22-22zM598 874c-12 0-22 10-22 22s10 22 22 22 20-10 20-22-8-22-20-22zM588 534c-28 4-50 26-54 54v10c0 36 28 64 64 64s64-28 64-64-28-64-64-64h-10zM598 726c-24 0-44 18-44 42s20 42 44 42 42-18 42-42-18-42-42-42z" />
<glyph unicode="&#xe961;" glyph-name="blur_on" d="M598 662c36 0 64-28 64-64s-28-64-64-64-64 28-64 64 28 64 64 64zM598 490c36 0 64-28 64-64s-28-64-64-64-64 28-64 64 28 64 64 64zM426 298c24 0 44-18 44-42s-20-42-44-42-42 18-42 42 18 42 42 42zM426 662c36 0 64-28 64-64s-28-64-64-64-64 28-64 64 28 64 64 64zM598 150c12 0 20-10 20-22s-8-22-20-22-22 10-22 22 10 22 22 22zM598 298c24 0 42-18 42-42s-18-42-42-42-44 18-44 42 20 42 44 42zM896 448c12 0 22-10 22-22s-10-20-22-20-22 8-22 20 10 22 22 22zM768 810c24 0 42-18 42-42s-18-42-42-42-42 18-42 42 18 42 42 42zM768 640c24 0 42-18 42-42s-18-44-42-44-42 20-42 44 18 42 42 42zM768 298c24 0 42-18 42-42s-18-42-42-42-42 18-42 42 18 42 42 42zM768 470c24 0 42-20 42-44s-18-42-42-42-42 18-42 42 18 44 42 44zM426 490c36 0 64-28 64-64s-28-64-64-64-64 28-64 64 28 64 64 64zM426 726c-24 0-42 18-42 42s18 42 42 42 44-18 44-42-20-42-44-42zM426 874c-12 0-20 10-20 22s8 22 20 22 22-10 22-22-10-22-22-22zM426 150c12 0 22-10 22-22s-10-22-22-22-20 10-20 22 8 22 20 22zM128 448c12 0 22-10 22-22s-10-20-22-20-22 8-22 20 10 22 22 22zM598 874c-12 0-22 10-22 22s10 22 22 22 20-10 20-22-8-22-20-22zM598 726c-24 0-44 18-44 42s20 42 44 42 42-18 42-42-18-42-42-42zM896 576c-12 0-22 10-22 22s10 20 22 20 22-8 22-20-10-22-22-22zM256 810c24 0 42-18 42-42s-18-42-42-42-42 18-42 42 18 42 42 42zM128 618c12 0 22-8 22-20s-10-22-22-22-22 10-22 22 10 20 22 20zM256 640c24 0 42-18 42-42s-18-44-42-44-42 20-42 44 18 42 42 42zM256 298c24 0 42-18 42-42s-18-42-42-42-42 18-42 42 18 42 42 42zM256 470c24 0 42-20 42-44s-18-42-42-42-42 18-42 42 18 44 42 44z" />
<glyph unicode="&#xe962;" glyph-name="class" d="M256 854v-342l106 64 108-64v342h-214zM768 938c46 0 86-38 86-84v-684c0-46-40-84-86-84h-512c-46 0-86 38-86 84v684c0 46 40 84 86 84h512z" />
<glyph unicode="&#xe963;" glyph-name="turned_in" d="M726 896c46 0 84-40 84-86v-682l-298 128-298-128v682c0 46 38 86 84 86h428z" />
<glyph unicode="&#xe964;" glyph-name="turned_in_not" d="M726 256v554h-428v-554l214 94zM726 896c46 0 84-40 84-86v-682l-298 128-298-128v682c0 46 38 86 84 86h428z" />
<glyph unicode="&#xe965;" glyph-name="border_all" d="M810 554v256h-256v-256h256zM810 214v256h-256v-256h256zM470 554v256h-256v-256h256zM470 214v256h-256v-256h256zM128 896h768v-768h-768v768z" />
<glyph unicode="&#xe966;" glyph-name="border_bottom" d="M214 384v-86h-86v86h86zM128 128v86h768v-86h-768zM214 554v-84h-86v84h86zM810 640v86h86v-86h-86zM810 896h86v-86h-86v86zM214 726v-86h-86v86h86zM810 298v86h86v-86h-86zM810 470v84h86v-84h-86zM726 896v-86h-86v86h86zM554 896v-86h-84v86h84zM726 554v-84h-86v84h86zM554 726v-86h-84v86h84zM214 896v-86h-86v86h86zM554 554v-84h-84v84h84zM384 896v-86h-86v86h86zM554 384v-86h-84v86h84zM384 554v-84h-86v84h86z" />
<glyph unicode="&#xe967;" glyph-name="border_clear" d="M640 810v86h86v-86h-86zM640 470v84h86v-84h-86zM640 128v86h86v-86h-86zM470 810v86h84v-86h-84zM810 896h86v-86h-86v86zM470 640v86h84v-86h-84zM810 640v86h86v-86h-86zM810 128v86h86v-86h-86zM810 470v84h86v-84h-86zM810 298v86h86v-86h-86zM470 470v84h84v-84h-84zM128 810v86h86v-86h-86zM128 640v86h86v-86h-86zM128 470v84h86v-84h-86zM128 298v86h86v-86h-86zM128 128v86h86v-86h-86zM470 128v86h84v-86h-84zM470 298v86h84v-86h-84zM298 128v86h86v-86h-86zM298 470v84h86v-84h-86zM298 810v86h86v-86h-86z" />
<glyph unicode="&#xe968;" glyph-name="border_color" d="M0 170h1024v-170h-1024v170zM884 852l-84-84-160 160 84 84c16 16 44 16 60 0l100-100c16-16 16-44 0-60zM758 726l-428-428h-160v160l428 428z" />
<glyph unicode="&#xe969;" glyph-name="border_horizontal" d="M810 128v86h86v-86h-86zM640 128v86h86v-86h-86zM470 298v86h84v-86h-84zM810 640v86h86v-86h-86zM810 896h86v-86h-86v86zM128 470v84h768v-84h-768zM470 128v86h84v-86h-84zM810 298v86h86v-86h-86zM554 896v-86h-84v86h84zM554 726v-86h-84v86h84zM726 896v-86h-86v86h86zM384 896v-86h-86v86h86zM214 896v-86h-86v86h86zM298 128v86h86v-86h-86zM128 298v86h86v-86h-86zM214 726v-86h-86v86h86zM128 128v86h86v-86h-86z" />
<glyph unicode="&#xe96a;" glyph-name="border_inner" d="M810 298v86h86v-86h-86zM810 128v86h86v-86h-86zM554 896v-342h342v-84h-342v-342h-84v342h-342v84h342v342h84zM640 128v86h86v-86h-86zM810 896h86v-86h-86v86zM810 640v86h86v-86h-86zM726 896v-86h-86v86h86zM214 896v-86h-86v86h86zM384 896v-86h-86v86h86zM128 298v86h86v-86h-86zM214 726v-86h-86v86h86zM298 128v86h86v-86h-86zM128 128v86h86v-86h-86z" />
<glyph unicode="&#xe96b;" glyph-name="border_left" d="M640 810v86h86v-86h-86zM640 470v84h86v-84h-86zM810 128v86h86v-86h-86zM810 470v84h86v-84h-86zM810 896h86v-86h-86v86zM810 298v86h86v-86h-86zM640 128v86h86v-86h-86zM810 640v86h86v-86h-86zM128 128v768h86v-768h-86zM298 470v84h86v-84h-86zM298 810v86h86v-86h-86zM298 128v86h86v-86h-86zM470 470v84h84v-84h-84zM470 640v86h84v-86h-84zM470 810v86h84v-86h-84zM470 298v86h84v-86h-84zM470 128v86h84v-86h-84z" />
<glyph unicode="&#xe96c;" glyph-name="border_outer" d="M384 554v-84h-86v84h86zM554 384v-86h-84v86h84zM810 214v596h-596v-596h596zM128 896h768v-768h-768v768zM726 554v-84h-86v84h86zM554 554v-84h-84v84h84zM554 726v-86h-84v86h84z" />
<glyph unicode="&#xe96d;" glyph-name="border_right" d="M470 640v86h84v-86h-84zM470 810v86h84v-86h-84zM470 470v84h84v-84h-84zM640 810v86h86v-86h-86zM640 128v86h86v-86h-86zM810 896h86v-768h-86v768zM640 470v84h86v-84h-86zM470 298v86h84v-86h-84zM128 640v86h86v-86h-86zM128 298v86h86v-86h-86zM128 470v84h86v-84h-86zM470 128v86h84v-86h-84zM128 128v86h86v-86h-86zM298 470v84h86v-84h-86zM298 810v86h86v-86h-86zM128 810v86h86v-86h-86zM298 128v86h86v-86h-86z" />
<glyph unicode="&#xe96e;" glyph-name="border_style" d="M810 640v86h86v-86h-86zM128 896h768v-86h-682v-682h-86v768zM810 470v84h86v-84h-86zM810 298v86h86v-86h-86zM470 128v86h84v-86h-84zM298 128v86h86v-86h-86zM810 128v86h86v-86h-86zM640 128v86h86v-86h-86z" />
<glyph unicode="&#xe96f;" glyph-name="border_top" d="M640 470v84h86v-84h-86zM810 128v86h86v-86h-86zM470 640v86h84v-86h-84zM640 128v86h86v-86h-86zM810 298v86h86v-86h-86zM128 896h768v-86h-768v86zM810 470v84h86v-84h-86zM810 640v86h86v-86h-86zM470 298v86h84v-86h-84zM128 640v86h86v-86h-86zM128 470v84h86v-84h-86zM128 128v86h86v-86h-86zM128 298v86h86v-86h-86zM470 128v86h84v-86h-84zM470 470v84h84v-84h-84zM298 470v84h86v-84h-86zM298 128v86h86v-86h-86z" />
<glyph unicode="&#xe970;" glyph-name="border_vertical" d="M640 470v84h86v-84h-86zM640 128v86h86v-86h-86zM640 810v86h86v-86h-86zM810 640v86h86v-86h-86zM810 896h86v-86h-86v86zM810 470v84h86v-84h-86zM810 128v86h86v-86h-86zM470 128v768h84v-768h-84zM810 298v86h86v-86h-86zM298 810v86h86v-86h-86zM128 298v86h86v-86h-86zM128 128v86h86v-86h-86zM128 470v84h86v-84h-86zM298 470v84h86v-84h-86zM298 128v86h86v-86h-86zM128 810v86h86v-86h-86zM128 640v86h86v-86h-86z" />
<glyph unicode="&#xe971;" glyph-name="branding_watermark" d="M896 214v256h-384v-256h384zM896 896c46 0 86-40 86-86v-596c0-46-40-86-86-86h-768c-46 0-86 40-86 86v596c0 46 40 86 86 86h768z" />
<glyph unicode="&#xe972;" glyph-name="brightness_1" d="M86 512c0 236 190 426 426 426s426-190 426-426-190-426-426-426-426 190-426 426z" />
<glyph unicode="&#xe973;" glyph-name="brightness_2" d="M426 938c236 0 428-190 428-426s-192-426-428-426c-78 0-150 20-212 56 128 74 212 212 212 370s-84 296-212 370c62 36 134 56 212 56z" />
<glyph unicode="&#xe974;" glyph-name="brightness_3" d="M384 938c236 0 426-190 426-426s-190-426-426-426c-44 0-88 6-128 18 174 54 298 216 298 408s-124 354-298 408c40 12 84 18 128 18z" />
<glyph unicode="&#xe975;" glyph-name="brightness_4" d="M512 256c142 0 256 114 256 256s-114 256-256 256c-38 0-74-10-106-24 88-40 148-128 148-232s-60-192-148-232c32-14 68-24 106-24zM854 654l140-142-140-142v-200h-200l-142-140-142 140h-200v200l-140 142 140 142v200h200l142 140 142-140h200v-200z" />
<glyph unicode="&#xe976;" glyph-name="brightness_low" d="M512 256c142 0 256 114 256 256s-114 256-256 256-256-114-256-256 114-256 256-256zM854 370v-200h-200l-142-140-142 140h-200v200l-140 142 140 142v200h200l142 140 142-140h200v-200l140-142z" />
<glyph unicode="&#xe977;" glyph-name="brightness_medium" d="M512 256c142 0 256 114 256 256s-114 256-256 256v-512zM854 370v-200h-200l-142-140-142 140h-200v200l-140 142 140 142v200h200l142 140 142-140h200v-200l140-142z" />
<glyph unicode="&#xe978;" glyph-name="brightness_high" d="M512 682c94 0 170-76 170-170s-76-170-170-170-170 76-170 170 76 170 170 170zM512 256c142 0 256 114 256 256s-114 256-256 256-256-114-256-256 114-256 256-256zM854 654l140-142-140-142v-200h-200l-142-140-142 140h-200v200l-140 142 140 142v200h200l142 140 142-140h200v-200z" />
<glyph unicode="&#xe979;" glyph-name="brightness_auto" d="M610 342h82l-138 384h-84l-138-384h82l30 84h136zM854 654l140-142-140-142v-200h-200l-142-140-142 140h-200v200l-140 142 140 142v200h200l142 140 142-140h200v-200zM462 484l50 156 50-156h-100z" />
<glyph unicode="&#xe97a;" glyph-name="broken_image" d="M768 536l128-128v-194c0-46-40-86-86-86h-596c-46 0-86 40-86 86v280l128-128 170 172 172-172zM896 810v-280l-128 128-170-172-172 172-170-172-128 130v194c0 46 40 86 86 86h596c46 0 86-40 86-86z" />
<glyph unicode="&#xe97b;" glyph-name="brush" d="M884 826c16-16 16-44 0-60l-382-382-118 118 382 382c16 16 44 16 60 0zM298 426c70 0 128-58 128-128 0-94-76-170-170-170-64 0-130 34-170 86 36 0 84 28 84 84 0 70 58 128 128 128z" />
<glyph unicode="&#xe97c;" glyph-name="bubble_chart" d="M444 648c0 114 90 206 204 206s206-92 206-206-92-204-206-204-204 90-204 204zM546 256c0 48 38 86 86 86s84-38 84-86-36-86-84-86-86 38-86 86zM170 410c0 76 62 136 138 136s136-60 136-136-60-136-136-136-138 60-138 136z" />
<glyph unicode="&#xe97d;" glyph-name="bug_report" d="M598 512v86h-172v-86h172zM598 342v84h-172v-84h172zM854 682v-84h-90c2-14 4-30 4-44v-42h86v-86h-86v-42c0-14-2-28-4-42h90v-86h-120c-44-76-128-128-222-128s-178 52-222 128h-120v86h90c-2 14-4 28-4 42v42h-86v86h86v42c0 14 2 30 4 44h-90v84h120c20 34 46 62 78 84l-70 70 60 60 94-92c20 4 40 6 60 6s40-2 60-6l94 92 60-60-70-70c32-22 58-50 78-84h120z" />
<glyph unicode="&#xe97e;" glyph-name="build" d="M968 214c18-12 18-42-4-60l-98-98c-18-18-42-18-60 0l-388 388c-98-38-212-18-294 64-86 86-108 214-56 316l188-184 128 128-184 184c102 46 230 30 316-56 82-82 102-196 64-294z" />
<glyph unicode="&#xe97f;" glyph-name="burst_mode" d="M470 298h426l-136 180-108-136-76 92zM938 810c24 0 44-18 44-42v-512c0-24-20-42-44-42h-512c-24 0-42 18-42 42v512c0 24 18 42 42 42h512zM214 810h84v-596h-84v596zM42 810h86v-596h-86v596z" />
<glyph unicode="&#xe980;" glyph-name="domain" d="M768 384v-86h-86v86h86zM768 554v-84h-86v84h86zM854 214v426h-342v-86h86v-84h-86v-86h86v-86h-86v-84h342zM426 726v84h-84v-84h84zM426 554v86h-84v-86h84zM426 384v86h-84v-86h84zM426 214v84h-84v-84h84zM256 726v84h-86v-84h86zM256 554v86h-86v-86h86zM256 384v86h-86v-86h86zM256 214v84h-86v-84h86zM512 726h426v-598h-852v768h426v-170z" />
<glyph unicode="&#xe981;" glyph-name="business_center" d="M598 726v84h-172v-84h172zM854 726c46 0 84-40 84-86v-128c0-46-38-86-84-86h-256v86h-172v-86h-256c-48 0-84 38-84 86v128c0 46 38 86 84 86h170v84l86 86h170l86-86v-84h172zM426 342h172v42h298v-170c0-48-38-86-86-86h-596c-48 0-86 38-86 86v170h298v-42z" />
<glyph unicode="&#xe982;" glyph-name="cached" d="M256 512h128l-170-170-172 170h128c0 188 154 342 342 342 66 0 130-20 182-54l-62-62c-36 20-76 30-120 30-142 0-256-114-256-256zM810 682l172-170h-128c0-188-154-342-342-342-66 0-130 20-182 54l62 62c36-20 76-30 120-30 142 0 256 114 256 256h-128z" />
<glyph unicode="&#xe983;" glyph-name="cake" d="M768 640c70 0 128-58 128-128v-66c0-46-38-84-84-84-22 0-42 8-58 24l-92 92-92-92c-32-32-86-32-118 0l-90 92-92-92c-16-16-36-24-58-24-46 0-84 38-84 84v66c0 70 58 128 128 128h214v86h84v-86h214zM708 342c28-28 64-44 104-44 32 0 60 10 84 26v-196c0-24-18-42-42-42h-684c-24 0-42 18-42 42v196c24-16 52-26 84-26 40 0 76 16 104 44l46 46 46-46c56-56 152-56 208 0l46 46zM512 768c-46 0-86 40-86 86 0 16 6 32 14 44l72 126 72-126c8-12 14-28 14-44 0-46-38-86-86-86z" />
<glyph unicode="&#xe984;" glyph-name="phone" d="M282 564c62-120 162-220 282-282l94 94c12 12 30 16 44 10 48-16 100-24 152-24 24 0 42-18 42-42v-150c0-24-18-42-42-42-400 0-726 326-726 726 0 24 18 42 42 42h150c24 0 42-18 42-42 0-54 8-104 24-152 4-14 2-32-10-44z" />
<glyph unicode="&#xe985;" glyph-name="call_end" d="M512 640c-68 0-134-10-196-30v-132c0-16-10-34-24-40-42-20-80-46-114-78-8-8-18-12-30-12s-22 4-30 12l-106 106c-8 8-12 18-12 30s4 22 12 30c130 124 306 200 500 200s370-76 500-200c8-8 12-18 12-30s-4-22-12-30l-106-106c-8-8-18-12-30-12s-22 4-30 12c-34 32-72 58-114 78-14 6-24 20-24 38v132c-62 20-128 32-196 32z" />
<glyph unicode="&#xe986;" glyph-name="call_made" d="M384 810h426v-426h-84v282l-496-496-60 60 496 496h-282v84z" />
<glyph unicode="&#xe987;" glyph-name="merge_type" d="M320 682l192 192 192-192h-150v-272l-256-256-60 60 232 230v238h-150zM726 154l-146 144 60 60 146-144z" />
<glyph unicode="&#xe988;" glyph-name="call_missed" d="M836 726l60-60-384-384-298 298v-196h-86v342h342v-86h-196l238-238z" />
<glyph unicode="&#xe989;" glyph-name="call_missed_outgoing" d="M128 666l60 60 324-324 238 238h-196v86h342v-342h-86v196l-298-298z" />
<glyph unicode="&#xe98a;" glyph-name="call_received" d="M854 794l-496-496h282v-84h-426v426h84v-282l496 496z" />
<glyph unicode="&#xe98b;" glyph-name="call_split" d="M426 854l-98-98 226-226v-360h-84v324l-202 202-98-98v256h256zM598 854h256v-256l-98 98-124-124-60 60 124 124z" />
<glyph unicode="&#xe98c;" glyph-name="call_to_action" d="M896 214v128h-768v-128h768zM896 896c46 0 86-40 86-86v-596c0-46-40-86-86-86h-768c-46 0-86 40-86 86v596c0 46 40 86 86 86h768z" />
<glyph unicode="&#xe98d;" glyph-name="camera" d="M420 96c68.709 118.625 136.494 238.172 206 356l156-270c-74-60-168-96-270-96-32 0-62 4-92 10zM104 384h414l-158-270c-122 46-216 146-256 270zM198 800c71.999-124.667 143.587-249.746 216-374h-320c-6 28-8 56-8 86 0 112 42 212 112 288zM930 598c6-28 8-56 8-86 0-112-42-212-112-288l-204 352-12 22h320zM920 640h-414l158 270c122-46 216-146 256-270zM402 576l-4-4-156 270c74 60 168 96 270 96 32 0 62-4 92-10z" />
<glyph unicode="&#xe98e;" glyph-name="photo_camera" d="M512 298c118 0 214 96 214 214s-96 214-214 214-214-96-214-214 96-214 214-214zM384 938h256l78-84h136c46 0 84-40 84-86v-512c0-46-38-86-84-86h-684c-46 0-84 40-84 86v512c0 46 38 86 84 86h136zM376 512c0 76 60 136 136 136s136-60 136-136-60-136-136-136-136 60-136 136z" />
<glyph unicode="&#xe98f;" glyph-name="camera_enhance" d="M512 298l-54 118-116 54 116 52 54 118 54-118 116-52-116-54zM512 256c118 0 214 96 214 214s-96 212-214 212-214-94-214-212 96-214 214-214zM384 896h256l78-86h136c46 0 84-38 84-84v-512c0-46-38-86-84-86h-684c-46 0-84 40-84 86v512c0 46 38 84 84 84h136z" />
<glyph unicode="&#xe990;" glyph-name="camera_front" d="M298 938v-448c0 72 142 108 214 108s214-36 214-108v448h-428zM726 1024c46 0 84-40 84-86v-596c0-46-38-86-84-86h-300l128-128-128-128v86h-212v84h212v86h-128c-46 0-84 40-84 86v596c0 46 38 86 84 86h428zM512 682c-46 0-84 40-84 86s38 86 84 86 86-40 86-86-40-86-86-86zM598 170h212v-84h-212v84z" />
<glyph unicode="&#xe991;" glyph-name="camera_rear" d="M512 768c46 0 84 40 84 86s-38 84-84 84-86-38-86-84 38-86 86-86zM726 1024c46 0 84-40 84-86v-596c0-46-38-86-84-86h-300l128-128-128-128v86h-212v84h212v86h-128c-46 0-84 40-84 86v596c0 46 38 86 84 86h428zM598 170h212v-84h-212v84z" />
<glyph unicode="&#xe992;" glyph-name="camera_roll" d="M854 640v86h-86v-86h86zM854 256v86h-86v-86h86zM682 640v86h-84v-86h84zM682 256v86h-84v-86h84zM512 640v86h-86v-86h86zM512 256v86h-86v-86h86zM598 810h340v-640h-340c0-46-40-84-86-84h-342c-46 0-84 38-84 84v640c0 46 38 86 84 86h44v42c0 24 18 44 42 44h170c24 0 44-20 44-44v-42h42c46 0 86-40 86-86z" />
<glyph unicode="&#xe993;" glyph-name="cancel" d="M726 358l-154 154 154 154-60 60-154-154-154 154-60-60 154-154-154-154 60-60 154 154 154-154zM512 938c236 0 426-190 426-426s-190-426-426-426-426 190-426 426 190 426 426 426z" />
<glyph unicode="&#xe994;" glyph-name="redeem" d="M854 426v256h-218l90-120-70-50c-48.076 65.258-96.637 130.029-144 196-47.366-65.967-95.923-130.744-144-196l-70 50 90 120h-218v-256h684zM854 214v84h-684v-84h684zM384 854c-24 0-42-20-42-44s18-42 42-42 42 18 42 42-18 44-42 44zM640 854c-24 0-42-20-42-44s18-42 42-42 42 18 42 42-18 44-42 44zM854 768c48 0 84-38 84-86v-468c0-48-36-86-84-86h-684c-48 0-84 38-84 86v468c0 48 36 86 84 86h94c-4 14-8 28-8 42 0 70 58 128 128 128 44 0 82-22 106-56l22-30 22 30c24 34 62 56 106 56 70 0 128-58 128-128 0-14-4-28-8-42h94z" />
<glyph unicode="&#xe995;" glyph-name="card_membership" d="M854 598v256h-684v-256h684zM854 384v86h-684v-86h684zM854 938c48 0 84-36 84-84v-470c0-48-36-86-84-86h-172v-212l-170 84-170-84v212h-172c-48 0-84 38-84 86v470c0 48 36 84 84 84h684z" />
<glyph unicode="&#xe996;" glyph-name="card_travel" d="M854 426v256h-128v-84h-86v84h-256v-84h-86v84h-128v-256h684zM854 214v84h-684v-84h684zM384 854v-86h256v86h-256zM854 768c48 0 84-38 84-86v-468c0-48-36-86-84-86h-684c-48 0-84 38-84 86v468c0 48 36 86 84 86h128v86c0 48 38 84 86 84h256c48 0 86-36 86-84v-86h128z" />
<glyph unicode="&#xe997;" glyph-name="casino" d="M704 640c36 0 64 28 64 64s-28 64-64 64-64-28-64-64 28-64 64-64zM704 256c36 0 64 28 64 64s-28 64-64 64-64-28-64-64 28-64 64-64zM512 448c36 0 64 28 64 64s-28 64-64 64-64-28-64-64 28-64 64-64zM320 640c36 0 64 28 64 64s-28 64-64 64-64-28-64-64 28-64 64-64zM320 256c36 0 64 28 64 64s-28 64-64 64-64-28-64-64 28-64 64-64zM810 896c46 0 86-40 86-86v-596c0-46-40-86-86-86h-596c-46 0-86 40-86 86v596c0 46 40 86 86 86h596z" />
<glyph unicode="&#xe998;" glyph-name="cast" d="M42 598c258 0 470-210 470-470h-86c0 212-172 384-384 384v86zM42 426c166 0 300-132 300-298h-86c0 118-96 214-214 214v84zM42 256c70 0 128-58 128-128h-128v128zM896 896c46 0 86-40 86-86v-596c0-46-40-86-86-86h-298v86h298v596h-768v-128h-86v128c0 46 40 86 86 86h768z" />
<glyph unicode="&#xe999;" glyph-name="cast_connected" d="M896 896c46 0 86-40 86-86v-596c0-46-40-86-86-86h-298v86h298v596h-768v-128h-86v128c0 46 40 86 86 86h768zM42 598c258 0 470-210 470-470h-86c0 212-172 384-384 384v86zM810 726v-428h-240c-54 168-188 304-356 358v70h596zM42 426c166 0 300-132 300-298h-86c0 118-96 214-214 214v84zM42 256c70 0 128-58 128-128h-128v128z" />
<glyph unicode="&#xe99a;" glyph-name="center_focus_strong" d="M810 214v170h86v-170c0-46-40-86-86-86h-170v86h170zM810 896c46 0 86-40 86-86v-170h-86v170h-170v86h170zM214 810v-170h-86v170c0 46 40 86 86 86h170v-86h-170zM214 384v-170h170v-86h-170c-46 0-86 40-86 86v170h86zM512 682c94 0 170-76 170-170s-76-170-170-170-170 76-170 170 76 170 170 170z" />
<glyph unicode="&#xe99b;" glyph-name="center_focus_weak" d="M512 426c46 0 86 40 86 86s-40 86-86 86-86-40-86-86 40-86 86-86zM512 682c94 0 170-76 170-170s-76-170-170-170-170 76-170 170 76 170 170 170zM810 214v170h86v-170c0-46-40-86-86-86h-170v86h170zM810 896c46 0 86-40 86-86v-170h-86v170h-170v86h170zM214 810v-170h-86v170c0 46 40 86 86 86h170v-86h-170zM214 384v-170h170v-86h-170c-46 0-86 40-86 86v170h86z" />
<glyph unicode="&#xe99c;" glyph-name="change_history" d="M512 854l426-684h-852zM512 692l-272-436h544z" />
<glyph unicode="&#xe99d;" glyph-name="chat" d="M768 682v86h-512v-86h512zM598 426v86h-342v-86h342zM256 640v-86h512v86h-512zM854 938c46 0 84-38 84-84v-512c0-46-38-86-84-86h-598l-170-170v768c0 46 38 84 84 84h684z" />
<glyph unicode="&#xe99e;" glyph-name="chat_bubble" d="M854 938c46 0 84-38 84-84v-512c0-46-38-86-84-86h-598l-170-170v768c0 46 38 84 84 84h684z" />
<glyph unicode="&#xe99f;" glyph-name="chat_bubble_outline" d="M854 342v512h-684v-598l86 86h598zM854 938c46 0 84-38 84-84v-512c0-46-38-86-84-86h-598l-170-170v768c0 46 38 84 84 84h684z" />
<glyph unicode="&#xe9a0;" glyph-name="check" d="M384 334l452 452 60-60-512-512-238 238 60 60z" />
<glyph unicode="&#xe9a1;" glyph-name="check_box" d="M426 298l384 384-60 62-324-324-152 152-60-60zM810 896c48 0 86-40 86-86v-596c0-46-38-86-86-86h-596c-48 0-86 40-86 86v596c0 46 38 86 86 86h596z" />
<glyph unicode="&#xe9a2;" glyph-name="check_box_outline_blank" d="M810 896c46 0 86-40 86-86v-596c0-46-40-86-86-86h-596c-46 0-86 40-86 86v596c0 46 40 86 86 86h596zM810 810h-596v-596h596v596z" />
<glyph unicode="&#xe9a3;" glyph-name="check_circle" d="M426 298l384 384-60 62-324-324-152 152-60-60zM512 938c236 0 426-190 426-426s-190-426-426-426-426 190-426 426 190 426 426 426z" />
<glyph unicode="&#xe9a4;" glyph-name="navigate_before" d="M658 708l-196-196 196-196-60-60-256 256 256 256z" />
<glyph unicode="&#xe9a5;" glyph-name="navigate_next" d="M426 768l256-256-256-256-60 60 196 196-196 196z" />
<glyph unicode="&#xe9a6;" glyph-name="child_care" d="M320 426h384c-32-76-106-128-192-128s-160 52-192 128zM512 214c136.004 0 250.464 89.626 286 214 4 0 8-2 12-2 46 0 86 40 86 86s-40 86-86 86c-4 0-8-2-12-2-35.529 124.35-149.994 214-286 214-136.004 0-250.464-89.626-286-214-4 0-8 2-12 2-46 0-86-40-86-86s40-86 86-86c4 0 8 2 12 2 35.529-124.35 149.994-214 286-214zM978 484c-10-64-56-118-118-136-56.536-118.211-189.668-220-348-220-157.767 0-291.044 100.097-346 220-62 18-110 72-120 136-2 8-4 18-4 28s2 20 4 28c10 64 58 118 120 136 22 48 52 90 92 124 68 60 156 96 254 96 160.584 0 290.218-98.294 346-220 62-18 110-72 120-136 2-8 4-18 4-28s-2-20-4-28zM352 576c0 30 24 54 54 54s52-24 52-54-22-54-52-54-54 24-54 54zM566 576c0 30 22 54 52 54s54-24 54-54-24-54-54-54-52 24-52 54z" />
<glyph unicode="&#xe9a7;" glyph-name="child_friendly" d="M726 170c36 0 64 28 64 64s-28 64-64 64-64-28-64-64 28-64 64-64zM342 170c36 0 64 28 64 64s-28 64-64 64-64-28-64-64 28-64 64-64zM824 346c30-28 50-68 50-112 0-82-66-148-148-148-76 0-138 56-148 128h-90c-10-72-70-128-146-128-82 0-150 66-150 148 0 56 32 106 78 132-10 14-90 188-90 188h-94v86h148l40-86h622c0-78-28-150-72-208zM554 938c188 0 342-152 342-340h-342v340z" />
<glyph unicode="&#xe9a8;" glyph-name="chrome_reader_mode" d="M896 214v554h-384v-554h384zM896 854c46 0 86-40 86-86v-554c0-46-40-86-86-86h-768c-46 0-86 40-86 86v554c0 46 40 86 86 86h768zM554 406h300v-64h-300v64zM554 618h300v-64h-300v64zM554 512h300v-64h-300v64z" />
<glyph unicode="&#xe9a9;" glyph-name="close" d="M810 750l-238-238 238-238-60-60-238 238-238-238-60 60 238 238-238 238 60 60 238-238 238 238z" />
<glyph unicode="&#xe9aa;" glyph-name="clear_all" d="M298 726h598v-86h-598v86zM128 298v86h598v-86h-598zM214 470v84h596v-84h-596z" />
<glyph unicode="&#xe9ab;" glyph-name="closed_caption" d="M768 554v44c0 24-18 42-42 42h-128c-24 0-44-18-44-42v-172c0-24 20-42 44-42h128c24 0 42 18 42 42v44h-64v-22h-86v128h86v-22h64zM470 554v44c0 24-20 42-44 42h-128c-24 0-42-18-42-42v-172c0-24 18-42 42-42h128c24 0 44 18 44 42v44h-64v-22h-86v128h86v-22h64zM810 854c46 0 86-40 86-86v-512c0-46-40-86-86-86h-596c-48 0-86 40-86 86v512c0 46 38 86 86 86h596z" />
<glyph unicode="&#xe9ac;" glyph-name="wb_cloudy" d="M826 596c110-8 198-100 198-212 0-118-96-214-214-214h-554c-142 0-256 114-256 256 0 132 100 240 228 254 54 102 160 174 284 174 156 0 284-110 314-258z" />
<glyph unicode="&#xe9ad;" glyph-name="cloud_circle" d="M704 342c58 0 106 48 106 106s-48 106-106 106h-22c0 94-76 172-170 172-80 0-146-56-164-130l-6 2c-70 0-128-58-128-128s58-128 128-128h362zM512 938c236 0 426-190 426-426s-190-426-426-426-426 190-426 426 190 426 426 426z" />
<glyph unicode="&#xe9ae;" glyph-name="cloud_done" d="M426 298l282 282-60 60-222-220-88 88-60-60zM826 596c110-8 198-100 198-212 0-118-96-214-214-214h-554c-142 0-256 114-256 256 0 132 100 240 228 254 54 102 160 174 284 174 156 0 284-110 314-258z" />
<glyph unicode="&#xe9af;" glyph-name="cloud_download" d="M726 470h-128v170h-172v-170h-128l214-214zM826 596c110-8 198-100 198-212 0-118-96-214-214-214h-554c-142 0-256 114-256 256 0 132 100 240 228 254 54 102 160 174 284 174 156 0 284-110 314-258z" />
<glyph unicode="&#xe9b0;" glyph-name="cloud_off" d="M330 598h-74c-94 0-170-78-170-172s76-170 170-170h416zM128 800l54 54 714-714-54-54-86 84h-500c-142 0-256 114-256 256 0 138 110 250 246 256zM826 596c110-8 198-100 198-212 0-72-36-136-90-174l-62 62c40 22 66 64 66 112 0 70-58 128-128 128h-64v22c0 130-104 234-234 234-40 0-76-8-108-26l-64 62c50 32 108 50 172 50 156 0 284-110 314-258z" />
<glyph unicode="&#xe9b1;" glyph-name="cloud_queue" d="M810 256c70 0 128 58 128 128s-58 128-128 128h-64v22c0 130-104 234-234 234-108 0-198-72-226-170h-30c-94 0-170-78-170-172s76-170 170-170h554zM826 596c110-8 198-100 198-212 0-118-96-214-214-214h-554c-142 0-256 114-256 256 0 132 100 240 228 254 54 102 160 174 284 174 156 0 284-110 314-258z" />
<glyph unicode="&#xe9b2;" glyph-name="code" d="M622 316l198 196-198 196 60 60 256-256-256-256zM402 316l-60-60-256 256 256 256 60-60-198-196z" />
<glyph unicode="&#xe9b3;" glyph-name="photo_library" d="M86 768h84v-598h598v-84h-598c-46 0-84 38-84 84v598zM470 512l-128-170h512l-172 212-126-158zM938 342c0-46-38-86-84-86h-512c-46 0-86 40-86 86v512c0 46 40 84 86 84h512c46 0 84-38 84-84v-512z" />
<glyph unicode="&#xe9b4;" glyph-name="collections_bookmark" d="M854 512v342h-214v-342l106 64zM854 938c46 0 84-38 84-84v-512c0-46-38-86-84-86h-512c-46 0-86 40-86 86v512c0 46 40 84 86 84h512zM170 768v-598h598v-84h-598c-46 0-84 38-84 84v598h84z" />
<glyph unicode="&#xe9b5;" glyph-name="palette" d="M746 512c36 0 64 28 64 64s-28 64-64 64-64-28-64-64 28-64 64-64zM618 682c36 0 64 28 64 64s-28 64-64 64-64-28-64-64 28-64 64-64zM406 682c36 0 64 28 64 64s-28 64-64 64-64-28-64-64 28-64 64-64zM278 512c36 0 64 28 64 64s-28 64-64 64-64-28-64-64 28-64 64-64zM512 896c212 0 384-154 384-342 0-118-96-212-214-212h-74c-36 0-64-28-64-64 0-16 6-30 16-42s16-28 16-44c0-36-28-64-64-64-212 0-384 172-384 384s172 384 384 384z" />
<glyph unicode="&#xe9b6;" glyph-name="colorize" d="M296 214l344 344-82 82-344-344zM884 784c16-16 18-42 0-60l-134-134 82-82-60-60-60 60-382-380h-202v202l380 382-60 60 60 60 82-82 134 134c16 16 44 16 60 0z" />
<glyph unicode="&#xe9b7;" glyph-name="comment" d="M768 682v86h-512v-86h512zM768 554v86h-512v-86h512zM768 426v86h-512v-86h512zM938 854v-768l-170 170h-598c-46 0-84 40-84 86v512c0 46 38 84 84 84h684c46 0 84-38 84-84z" />
<glyph unicode="&#xe9b8;" glyph-name="compare" d="M810 896c46 0 86-40 86-86v-596c0-46-40-86-86-86h-212v384l212-256v554h-212v86h212zM426 256v256l-212-256h212zM426 896v86h86v-940h-86v86h-212c-46 0-86 40-86 86v596c0 46 40 86 86 86h212z" />
<glyph unicode="&#xe9b9;" glyph-name="compare_arrows" d="M640 470l-170 170 170 170v-128h298v-84h-298v-128zM384 426v128l170-170-170-170v128h-298v84h298z" />
<glyph unicode="&#xe9ba;" glyph-name="laptop" d="M170 768v-426h684v426h-684zM854 256h170v-86h-1024v86h170c-46 0-84 40-84 86v426c0 46 38 86 84 86h684c46 0 84-40 84-86v-426c0-46-38-86-84-86z" />
<glyph unicode="&#xe9bb;" glyph-name="confirmation_number" d="M554 662v84h-84v-84h84zM554 470v84h-84v-84h84zM554 278v84h-84v-84h84zM938 598c-46 0-84-40-84-86s38-86 84-86v-170c0-46-38-86-84-86h-684c-46 0-84 40-84 86v170c48 0 84 40 84 86s-38 86-84 86v170c0 48 38 86 84 86h684c46 0 84-38 84-86v-170z" />
<glyph unicode="&#xe9bc;" glyph-name="contact_mail" d="M938 512v256h-340v-256h340zM598 256v42c0 86-170 132-256 132s-256-46-256-132v-42h512zM342 768c-70 0-128-58-128-128s58-128 128-128 128 58 128 128-58 128-128 128zM938 896c46 0 86-40 86-86v-596c0-46-40-86-86-86h-852c-46 0-86 40-86 86v596c0 46 40 86 86 86h852zM896 682l-128-84-128 84v44l128-86 128 86v-44z" />
<glyph unicode="&#xe9bd;" glyph-name="contact_phone" d="M762 426c-10 26-16 56-16 86s6 60 16 86h70l64 84-84 86c-56-42-98-100-118-170-8-28-12-56-12-86s4-58 12-86c20-68 62-128 118-170l84 86-64 84h-70zM598 256v42c0 86-170 132-256 132s-256-46-256-132v-42h512zM342 768c-70 0-128-58-128-128s58-128 128-128 128 58 128 128-58 128-128 128zM938 896c46 0 86-40 86-86v-596c0-46-40-86-86-86h-852c-46 0-86 40-86 86v596c0 46 40 86 86 86h852z" />
<glyph unicode="&#xe9be;" glyph-name="contacts" d="M726 298v64c0 72-142 108-214 108s-214-36-214-108v-64h428zM512 736c-52 0-96-44-96-96s44-96 96-96 96 44 96 96-44 96-96 96zM854 854c46 0 84-40 84-86v-512c0-46-38-86-84-86h-684c-46 0-84 40-84 86v512c0 46 38 86 84 86h684zM170 0v86h684v-86h-684zM854 1024v-86h-684v86h684z" />
<glyph unicode="&#xe9bf;" glyph-name="content_copy" d="M810 128v598h-468v-598h468zM810 810c46 0 86-38 86-84v-598c0-46-40-86-86-86h-468c-46 0-86 40-86 86v598c0 46 40 84 86 84h468zM682 982v-86h-512v-598h-84v598c0 46 38 86 84 86h512z" />
<glyph unicode="&#xe9c0;" glyph-name="content_cut" d="M810 896h128v-42l-298-300-86 86zM512 490c12 0 22 10 22 22s-10 22-22 22-22-10-22-22 10-22 22-22zM256 170c46 0 86 38 86 86s-40 86-86 86-86-38-86-86 40-86 86-86zM256 682c46 0 86 38 86 86s-40 86-86 86-86-38-86-86 40-86 86-86zM412 698l526-528v-42h-128l-298 298-100-100c10-22 14-44 14-70 0-94-76-170-170-170s-170 76-170 170 76 170 170 170c26 0 48-4 70-14l100 100-100 100c-22-10-44-14-70-14-94 0-170 76-170 170s76 170 170 170 170-76 170-170c0-26-4-48-14-70z" />
<glyph unicode="&#xe9c1;" glyph-name="content_paste" d="M810 170v684h-84v-128h-428v128h-84v-684h596zM512 938c-24 0-42-18-42-42s18-42 42-42 42 18 42 42-18 42-42 42zM810 938c46 0 86-38 86-84v-684c0-46-40-84-86-84h-596c-46 0-86 38-86 84v684c0 46 40 84 86 84h178c18 50 64 86 120 86s102-36 120-86h178z" />
<glyph unicode="&#xe9c2;" glyph-name="control_point_duplicate" d="M640 214c164 0 298 134 298 298s-134 298-298 298-298-134-298-298 134-298 298-298zM640 896c212 0 384-172 384-384s-172-384-384-384-384 172-384 384 172 384 384 384zM86 512c0-120 68-222 170-270v-92c-148 52-256 196-256 362s108 310 256 362v-92c-102-48-170-150-170-270zM682 682v-128h128v-84h-128v-128h-84v128h-128v84h128v128h84z" />
<glyph unicode="&#xe9c3;" glyph-name="copyright" d="M512 170c188 0 342 154 342 342s-154 342-342 342-342-154-342-342 154-342 342-342zM512 938c236 0 426-190 426-426s-190-426-426-426-426 190-426 426 190 426 426 426zM506 634c-61.522 0-80-54.457-80-116v-12c0-61.538 18.508-116 80-116 37.558 0 70 22.925 70 60h76c0-39.042-21.138-68.404-44-88-25.786-22.102-55.81-36-102-36-109.169 0-164 72.147-164 180v12c0 51.712 14.52 98.881 40 128 26.398 30.169 68.684 54 124 54 44.274 0 81.256-15.256 104-38 22.005-22.005 42-55.974 42-98h-76c0 10-2 18-6 26s-8 18-14 24c-10.835 10.835-29.352 20-50 20z" />
<glyph unicode="&#xe9c4;" glyph-name="mode_edit" d="M884 724l-78-78-160 160 78 78c16 16 44 16 60 0l100-100c16-16 16-44 0-60zM128 288l472 472 160-160-472-472h-160v160z" />
<glyph unicode="&#xe9c5;" glyph-name="create_new_folder" d="M810 426v86h-128v128h-84v-128h-128v-86h128v-128h84v128h128zM854 768c48 0 84-38 84-86v-426c0-48-36-86-84-86h-684c-48 0-84 38-84 86v512c0 48 36 86 84 86h256l86-86h342z" />
<glyph unicode="&#xe9c6;" glyph-name="payment" d="M854 682v86h-684v-86h684zM854 256v256h-684v-256h684zM854 854c48 0 84-38 84-86v-512c0-48-36-86-84-86h-684c-48 0-84 38-84 86v512c0 48 36 86 84 86h684z" />
<glyph unicode="&#xe9c7;" glyph-name="crop" d="M298 298h684v-84h-172v-172h-84v172h-428c-46 0-84 38-84 84v428h-172v84h172v172h84v-684zM726 384v342h-342v84h342c46 0 84-38 84-84v-342h-84z" />
<glyph unicode="&#xe9c8;" glyph-name="crop_16_9" d="M810 342v340h-596v-340h596zM810 768c46 0 86-40 86-86v-340c0-46-40-86-86-86h-596c-46 0-86 40-86 86v340c0 46 40 86 86 86h596z" />
<glyph unicode="&#xe9c9;" glyph-name="crop_3_2" d="M810 256v512h-596v-512h596zM810 854c46 0 86-40 86-86v-512c0-46-40-86-86-86h-596c-46 0-86 40-86 86v512c0 46 40 86 86 86h596z" />
<glyph unicode="&#xe9ca;" glyph-name="crop_landscape" d="M810 298v428h-596v-428h596zM810 810c46 0 86-38 86-84v-428c0-46-40-84-86-84h-596c-46 0-86 38-86 84v428c0 46 40 84 86 84h596z" />
<glyph unicode="&#xe9cb;" glyph-name="crop_7_5" d="M810 384v256h-596v-256h596zM810 726c46 0 86-40 86-86v-256c0-46-40-86-86-86h-596c-46 0-86 40-86 86v256c0 46 40 86 86 86h596z" />
<glyph unicode="&#xe9cc;" glyph-name="crop_din" d="M810 214v596h-596v-596h596zM810 896c46 0 86-40 86-86v-596c0-46-40-86-86-86h-596c-46 0-86 40-86 86v596c0 46 40 86 86 86h596z" />
<glyph unicode="&#xe9cd;" glyph-name="crop_free" d="M810 896c46 0 86-40 86-86v-170h-86v170h-170v86h170zM810 214v170h86v-170c0-46-40-86-86-86h-170v86h170zM214 384v-170h170v-86h-170c-46 0-86 40-86 86v170h86zM128 810c0 46 40 86 86 86h170v-86h-170v-170h-86v170z" />
<glyph unicode="&#xe9ce;" glyph-name="crop_original" d="M596 500l150-202h-468l116 152 84-102zM810 214v596h-596v-596h596zM810 896c46 0 86-40 86-86v-596c0-46-40-86-86-86h-596c-46 0-86 40-86 86v596c0 46 40 86 86 86h596z" />
<glyph unicode="&#xe9cf;" glyph-name="crop_portrait" d="M726 214v596h-428v-596h428zM726 896c46 0 84-40 84-86v-596c0-46-38-86-84-86h-428c-46 0-84 40-84 86v596c0 46 38 86 84 86h428z" />
<glyph unicode="&#xe9d0;" glyph-name="crop_rotate" d="M342 342h512v-86h-86v-86h-86v86h-340c-48 0-86 40-86 86v340h-86v86h86v86h86v-512zM682 426v256h-256v86h256c46 0 86-38 86-86v-256h-86zM514 1024c268 0 488-208 510-470h-64c-16 160-114 296-254 362l-58-56-162 162c10 0 18 2 28 2zM318 108l58 56 162-162c-10 0-18-2-28-2-268 0-488 208-510 470h64c16-160 114-296 254-362z" />
<glyph unicode="&#xe9d1;" glyph-name="crop_square" d="M768 256v512h-512v-512h512zM768 854c46 0 86-40 86-86v-512c0-46-40-86-86-86h-512c-46 0-86 40-86 86v512c0 46 40 86 86 86h512z" />
<glyph unicode="&#xe9d2;" glyph-name="dashboard" d="M554 896h342v-256h-342v256zM554 128v426h342v-426h-342zM128 128v256h342v-256h-342zM128 470v426h342v-426h-342z" />
<glyph unicode="&#xe9d3;" glyph-name="data_usage" d="M512 214c94 0 178 44 232 112l112-66c-78-106-202-174-344-174-236 0-426 190-426 426 0 222 168 402 384 424v-128c-144-20-256-146-256-296 0-166 132-298 298-298zM554 936c216-22 384-202 384-424 0-62-12-122-36-174l-112 66c12 34 20 70 20 108 0 150-112 276-256 296v128z" />
<glyph unicode="&#xe9d4;" glyph-name="date_range" d="M810 170v470h-596v-470h596zM810 854c46 0 86-40 86-86v-598c0-46-40-84-86-84h-596c-48 0-86 38-86 84v598c0 46 38 86 86 86h42v84h86v-84h340v84h86v-84h42zM726 554v-84h-86v84h86zM554 554v-84h-84v84h84zM384 554v-84h-86v84h86z" />
<glyph unicode="&#xe9d5;" glyph-name="dehaze" d="M86 790h852v-86h-852v86zM86 576h852v-86h-852v86zM86 362h852v-84h-852v84z" />
<glyph unicode="&#xe9d6;" glyph-name="delete" d="M810 854v-86h-596v86h148l44 42h212l44-42h148zM256 214v512h512v-512c0-46-40-86-86-86h-340c-46 0-86 40-86 86z" />
<glyph unicode="&#xe9d7;" glyph-name="delete_forever" d="M662 854h148v-86h-596v86h148l44 42h212zM360 518l92-92-90-90 60-60 90 90 90-90 60 60-90 90 90 92-60 60-90-92-90 92zM256 214v512h512v-512c0-46-40-86-86-86h-340c-46 0-86 40-86 86z" />
<glyph unicode="&#xe9d8;" glyph-name="delete_sweep" d="M598 810v-84h-512v84h128l42 44h170l44-44h128zM128 256v426h426v-426c0-46-38-86-84-86h-256c-46 0-86 40-86 86zM640 512h256v-86h-256v86zM640 682h298v-84h-298v84zM640 342h170v-86h-170v86z" />
<glyph unicode="&#xe9d9;" glyph-name="description" d="M554 640h236l-236 234v-234zM682 426v86h-340v-86h340zM682 256v86h-340v-86h340zM598 938l256-256v-512c0-46-40-84-86-84h-512c-46 0-86 38-86 84l2 684c0 46 38 84 84 84h342z" />
<glyph unicode="&#xe9da;" glyph-name="desktop_mac" d="M896 426v428h-768v-428h768zM896 938c46 0 86-38 86-84v-512c0-46-40-86-86-86h-298l84-128v-42h-340v42l84 128h-298c-46 0-86 40-86 86v512c0 46 40 84 86 84h768z" />
<glyph unicode="&#xe9db;" glyph-name="desktop_windows" d="M896 342v512h-768v-512h768zM896 938c46 0 86-38 86-84v-512c0-46-40-86-86-86h-298v-86h84v-84h-340v84h84v86h-298c-46 0-86 40-86 86v512c0 46 40 84 86 84h768z" />
<glyph unicode="&#xe9dc;" glyph-name="details" d="M272 768l240-426 240 426h-480zM128 854h768l-384-684z" />
<glyph unicode="&#xe9dd;" glyph-name="developer_board" d="M512 554h170v-256h-170v256zM256 726h214v-214h-214v214zM512 726h170v-128h-170v128zM256 470h214v-172h-214v172zM768 214v596h-598v-596h598zM938 640h-84v-86h84v-84h-84v-86h84v-86h-84v-84c0-46-40-86-86-86h-598c-46 0-84 40-84 86v596c0 46 38 86 84 86h598c46 0 86-40 86-86v-84h84v-86z" />
<glyph unicode="&#xe9de;" glyph-name="developer_mode" d="M726 214v84h84v-170c0-46-38-86-84-86h-428c-46 0-84 40-84 86v170h84v-84h428zM426 376l-60-60-196 196 196 196 60-60-134-136zM658 316l-60 60 134 136-134 136 60 60 196-196zM298 810v-84h-84v170c0 46 38 86 84 86l428-2c46 0 84-38 84-84v-170h-84v84h-428z" />
<glyph unicode="&#xe9df;" glyph-name="device_hub" d="M726 342h170v-214h-214v130l-170 180-170-180v-130h-214v214h170l172 170v136c-50 18-86 64-86 120 0 70 58 128 128 128s128-58 128-128c0-56-36-102-86-120v-136z" />
<glyph unicode="&#xe9e0;" glyph-name="phonelink" d="M938 298v300h-170v-300h170zM982 682c24 0 42-18 42-42v-426c0-24-18-44-42-44h-256c-24 0-44 20-44 44v426c0 24 20 42 44 42h256zM170 768v-470h428v-128h-598v128h86v470c0 46 38 86 84 86h768v-86h-768z" />
<glyph unicode="&#xe9e1;" glyph-name="devices_other" d="M896 256v342h-170v-342h170zM938 682c22 0 44-20 44-42v-426c0-22-22-44-44-44h-256c-22 0-42 22-42 44v426c0 22 20 42 42 42h256zM470 278c36 0 64 28 64 64s-28 64-64 64-64-28-64-64 28-64 64-64zM554 512v-76c26-24 44-56 44-94s-18-72-44-96v-76h-170v76c-26 24-42 58-42 96s16 70 42 94v76h170zM128 768v-512h170v-86h-170c-46 0-86 40-86 86v512c0 46 40 86 86 86h768v-86h-768z" />
<glyph unicode="&#xe9e2;" glyph-name="dialer_sip" d="M854 362c24 0 42-18 42-42v-150c0-24-18-42-42-42-400 0-726 326-726 726 0 24 18 42 42 42h150c24 0 42-18 42-42 0-54 8-104 24-152 4-14 2-32-10-44l-94-94c62-122 162-220 282-282l94 94c12 12 30 14 44 10 48-16 98-24 152-24zM854 810v44h-44v-44h44zM768 896h128v-128h-86v-86h-42v214zM640 810v-128h-128v44h86v42h-86v128h128v-42h-86v-44h86zM726 896v-214h-44v214h44z" />
<glyph unicode="&#xe9e3;" glyph-name="dialpad" d="M512 982c46 0 86-40 86-86s-40-86-86-86-86 40-86 86 40 86 86 86zM512 726c46 0 86-40 86-86s-40-86-86-86-86 40-86 86 40 86 86 86zM768 726c46 0 86-40 86-86s-40-86-86-86-86 40-86 86 40 86 86 86zM768 470c46 0 86-40 86-86s-40-86-86-86-86 40-86 86 40 86 86 86zM512 470c46 0 86-40 86-86s-40-86-86-86-86 40-86 86 40 86 86 86zM768 810c-46 0-86 40-86 86s40 86 86 86 86-40 86-86-40-86-86-86zM256 470c46 0 86-40 86-86s-40-86-86-86-86 40-86 86 40 86 86 86zM256 726c46 0 86-40 86-86s-40-86-86-86-86 40-86 86 40 86 86 86zM256 982c46 0 86-40 86-86s-40-86-86-86-86 40-86 86 40 86 86 86zM512 214c46 0 86-40 86-86s-40-86-86-86-86 40-86 86 40 86 86 86z" />
<glyph unicode="&#xe9e4;" glyph-name="directions" d="M598 406l148 148-148 150v-106h-214c-24 0-42-20-42-44v-170h84v128h172v-106zM926 542c16-18 16-44 0-60l-384-384c-16-16-44-16-60 0l-384 384c-16 16-16 44 0 60l384 384c16 16 44 16 60 0z" />
<glyph unicode="&#xe9e5;" glyph-name="directions_bike" d="M810 150c82 0 150 66 150 148s-68 150-150 150-148-68-148-150 66-148 148-148zM810 512c120 0 214-94 214-214s-94-212-214-212-212 92-212 212 92 214 212 214zM460 576l94-98v-264h-84v212l-138 120c-18 12-24 34-24 60 0 22 6 42 24 60l120 120c12 18 34 24 60 24s46-6 68-24l82-82c38-38 88-64 152-64v-86c-90 0-160 34-216 90l-34 34zM214 150c82 0 148 66 148 148s-66 150-148 150-150-68-150-150 68-148 150-148zM214 512c120 0 212-94 212-214s-92-212-212-212-214 92-214 212 94 214 214 214zM662 790c-46 0-86 38-86 84s40 86 86 86 84-40 84-86-38-84-84-84z" />
<glyph unicode="&#xe9e6;" glyph-name="directions_boat" d="M256 768v-170l256 84 256-84v170h-512zM168 214l-80 284c-9.564 28.693 7.98 47.327 28 54l54 18v198c0 46 40 86 86 86h128v128h256v-128h128c46 0 86-40 86-86v-198l54-18c20.040-6.68 37.574-25.277 28-54l-80-284h-2c-68 0-130 36-172 84-42-48-102-84-170-84s-128 36-170 84c-42-48-104-84-172-84h-2zM854 128h84v-86h-84c-58 0-118 14-172 42-108-56-232-56-340 0-54-28-114-42-172-42h-84v86h84c60 0 120 20 172 56 104-72 236-72 340 0 52-36 112-56 172-56z" />
<glyph unicode="&#xe9e7;" glyph-name="directions_bus" d="M768 554v214h-512v-214h512zM704 298c36 0 64 28 64 64s-28 64-64 64-64-28-64-64 28-64 64-64zM320 298c36 0 64 28 64 64s-28 64-64 64-64-28-64-64 28-64 64-64zM170 342v426c0 150 154 170 342 170s342-20 342-170v-426c0-38-18-72-44-96v-76c0-24-18-42-42-42h-42c-24 0-44 18-44 42v44h-340v-44c0-24-20-42-44-42h-42c-24 0-42 18-42 42v76c-26 24-44 58-44 96z" />
<glyph unicode="&#xe9e8;" glyph-name="directions_car" d="M214 554h596l-64 192h-468zM746 342c36 0 64 28 64 64s-28 64-64 64-64-28-64-64 28-64 64-64zM278 342c36 0 64 28 64 64s-28 64-64 64-64-28-64-64 28-64 64-64zM808 768l88-256v-342c0-24-18-42-42-42h-44c-24 0-42 18-42 42v44h-512v-44c0-24-18-42-42-42h-44c-24 0-42 18-42 42v342l88 256c8 26 34 42 62 42h468c28 0 54-16 62-42z" />
<glyph unicode="&#xe9e9;" glyph-name="directions_railway" d="M768 598v212h-512v-212h512zM512 298c46 0 86 40 86 86s-40 86-86 86-86-40-86-86 40-86 86-86zM170 362v448c0 150 154 172 342 172s342-22 342-172v-448c0-82-68-148-150-148l64-64v-22h-512v22l64 64c-82 0-150 66-150 148z" />
<glyph unicode="&#xe9ea;" glyph-name="directions_run" d="M422 198l-298 58 16 86 210-42 68 346-78-30v-146h-84v200l222 94c12 0 22 4 34 4 30 0 54-16 72-42l42-68c34-60 102-102 184-102v-86c-94 0-178 42-234 106l-26-128 90-84v-320h-86v256l-90 84zM576 790c-46 0-86 40-86 86s40 84 86 84 84-38 84-84-38-86-84-86z" />
<glyph unicode="&#xe9eb;" glyph-name="directions_transit" d="M768 554v214h-214v-214h214zM704 298c36 0 64 28 64 64s-28 64-64 64-64-28-64-64 28-64 64-64zM470 554v214h-214v-214h214zM320 298c36 0 64 28 64 64s-28 64-64 64-64-28-64-64 28-64 64-64zM512 938c188 0 342-20 342-170v-406c0-82-68-148-150-148l64-64v-22h-512v22l64 64c-82 0-150 66-150 148v406c0 150 154 170 342 170z" />
<glyph unicode="&#xe9ec;" glyph-name="directions_walk" d="M418 644l-120-602h90l78 342 88-86v-256h86v320l-90 86 26 128c56-64 140-106 234-106v84c-82 0-148 44-182 104l-44 68c-18 26-42 42-72 42-12 0-22-4-34-4l-222-94v-200h86v144l76 30zM576 790c-46 0-86 38-86 84s40 86 86 86 86-40 86-86-40-84-86-84z" />
<glyph unicode="&#xe9ed;" glyph-name="disc_full" d="M426 426c46 0 86 40 86 86s-40 86-86 86-84-40-84-86 38-86 84-86zM426 854c188 0 342-154 342-342s-154-342-342-342-340 154-340 342 152 342 340 342zM854 726h84v-214h-84v214zM854 342v84h84v-84h-84z" />
<glyph unicode="&#xe9ee;" glyph-name="dns" d="M298 640c46 0 86 40 86 86s-40 84-86 84-84-38-84-84 38-86 84-86zM854 896c24 0 42-18 42-42v-256c0-24-18-44-42-44h-684c-24 0-42 20-42 44v256c0 24 18 42 42 42h684zM298 214c46 0 86 38 86 84s-40 86-86 86-84-40-84-86 38-84 84-84zM854 470c24 0 42-20 42-44v-256c0-24-18-42-42-42h-684c-24 0-42 18-42 42v256c0 24 18 44 42 44h684z" />
<glyph unicode="&#xe9ef;" glyph-name="not_interested" d="M782 302c46 58 72 132 72 210 0 188-154 342-342 342-78 0-152-26-210-72zM512 170c78 0 152 26 210 72l-480 480c-46-58-72-132-72-210 0-188 154-342 342-342zM512 938c236 0 426-190 426-426s-190-426-426-426-426 190-426 426 190 426 426 426z" />
<glyph unicode="&#xe9f0;" glyph-name="do_not_disturb_alt" d="M512 170c188 0 342 154 342 342 0 76-28 150-74 210l-478-478c60-46 134-74 210-74zM170 512c0-76 28-150 74-210l478 478c-60 46-134 74-210 74-188 0-342-154-342-342zM512 938c234 0 426-192 426-426s-192-426-426-426-426 192-426 426 192 426 426 426z" />
<glyph unicode="&#xe9f1;" glyph-name="do_not_disturb_off" d="M298 470h148l-86 84h-62v-84zM96 928l832-832-56-54-118 120c-68-48-152-76-242-76-236 0-426 190-426 426 0 90 28 174 76 242l-120 118zM726 554h-148l-308 308c68 48 152 76 242 76 236 0 426-190 426-426 0-90-28-174-76-242l-198 200h62v84z" />
<glyph unicode="&#xe9f2;" glyph-name="remove_circle" d="M726 470v84h-428v-84h428zM512 938c236 0 426-190 426-426s-190-426-426-426-426 190-426 426 190 426 426 426z" />
<glyph unicode="&#xe9f3;" glyph-name="dock" d="M682 384v426h-340v-426h340zM682 980c46 0 86-38 86-84v-598c0-46-40-84-86-84h-340c-46 0-86 38-86 84v598c0 46 40 86 86 86zM342 42v86h340v-86h-340z" />
<glyph unicode="&#xe9f4;" glyph-name="done" d="M384 332l452 454 60-60-512-512-238 238 58 60z" />
<glyph unicode="&#xe9f5;" glyph-name="done_all" d="M18 452l60 60 238-238-60-60zM948 786l62-60-512-512-240 238 62 60 178-178zM768 726l-270-272-60 60 270 272z" />
<glyph unicode="&#xe9f6;" glyph-name="donut_large" d="M554 216c128 18 238 126 256 254h128c-20-214-170-364-384-384v130zM810 554c-18 128-128 236-256 254v130c214-20 364-170 384-384h-128zM470 808c-128-20-256-146-256-296s128-276 256-296v-130c-214 22-384 204-384 426s170 404 384 426v-130z" />
<glyph unicode="&#xe9f7;" glyph-name="donut_small" d="M554 390c42 12 66 44 80 80h304c-20-202-170-364-384-384v304zM634 554c-14 36-38 68-80 80v304c214-20 364-182 384-384h-304zM470 634c-42-18-86-66-86-122s44-104 86-122v-304c-214 22-384 204-384 426s170 404 384 426v-304z" />
<glyph unicode="&#xe9f8;" glyph-name="drafts" d="M512 470l352 220-352 206-352-206zM938 682v-426c0-46-38-86-84-86h-684c-46 0-84 40-84 86v426c0 30 16 60 40 74l386 226 386-226c24-14 40-44 40-74z" />
<glyph unicode="&#xe9f9;" glyph-name="drag_handle" d="M170 384v86h684v-86h-684zM854 640v-86h-684v86h684z" />
<glyph unicode="&#xe9fa;" glyph-name="time_to_leave" d="M214 598h596l-64 192h-468zM746 384c36 0 64 28 64 64s-28 64-64 64-64-28-64-64 28-64 64-64zM278 384c36 0 64 28 64 64s-28 64-64 64-64-28-64-64 28-64 64-64zM808 810l88-256v-340c0-24-18-44-42-44h-44c-24 0-42 20-42 44v42h-512v-42c0-24-18-44-42-44h-44c-24 0-42 20-42 44v340l88 256c8 26 34 44 62 44h468c28 0 54-18 62-44z" />
<glyph unicode="&#xe9fb;" glyph-name="dvr" d="M298 512v-86h-84v86h84zM298 682v-84h-84v84h84zM810 512v-86h-468v86h468zM810 682v-84h-468v84h468zM896 298v512h-768v-512h768zM896 896c46 0 86-40 86-86l-2-512c0-46-38-84-84-84h-214v-86h-340v86h-214c-46 0-86 38-86 84v512c0 46 40 86 86 86h768z" />
<glyph unicode="&#xe9fc;" glyph-name="edit_location" d="M636 702c6 6 6 16 0 22l-40 40c-6 6-16 6-22 0l-30-30 62-62zM446 512l142 142-62 62-142-142v-62h62zM512 938c164 0 298-134 298-298 0-224-298-554-298-554s-298 330-298 554c0 164 134 298 298 298z" />
<glyph unicode="&#xe9fd;" glyph-name="eject" d="M512 810l284-426h-568zM214 298h596v-84h-596v84z" />
<glyph unicode="&#xe9fe;" glyph-name="markunread" d="M854 682v86l-342-214-342 214v-86l342-212zM854 854c46 0 84-40 84-86v-512c0-46-38-86-84-86h-684c-46 0-84 40-84 86v512c0 46 38 86 84 86h684z" />
<glyph unicode="&#xe9ff;" glyph-name="enhanced_encryption" d="M682 342v84h-128v128h-84v-128h-128v-84h128v-128h84v128h128zM380 768v-86h264v86c0 72-60 132-132 132s-132-60-132-132zM768 682c46 0 86-38 86-84v-428c0-46-40-84-86-84h-512c-46 0-86 38-86 84v428c0 46 40 84 86 84h42v86c0 118 96 214 214 214s214-96 214-214v-86h42z" />
<glyph unicode="&#xea00;" glyph-name="equalizer" d="M682 640h172v-470h-172v470zM170 170v342h172v-342h-172zM426 170v684h172v-684h-172z" />
<glyph unicode="&#xea01;" glyph-name="error" d="M554 470v256h-84v-256h84zM554 298v86h-84v-86h84zM512 938c236 0 426-190 426-426s-190-426-426-426-426 190-426 426 190 426 426 426z" />
<glyph unicode="&#xea02;" glyph-name="error_outline" d="M512 170c188 0 342 154 342 342s-154 342-342 342-342-154-342-342 154-342 342-342zM512 938c236 0 426-190 426-426s-190-426-426-426-426 190-426 426 190 426 426 426zM470 726h84v-256h-84v256zM470 384h84v-86h-84v86z" />
<glyph unicode="&#xea03;" glyph-name="euro_symbol" d="M640 234c70 0 132 26 180 68l76-76c-68-62-158-98-256-98-168 0-310 108-362 256h-150v86h130c-2 14-2 28-2 42s0 28 2 42h-130v86h150c52 148 194 256 362 256 98 0 188-36 256-98l-76-76c-48 42-112 68-180 68-106 0-200-62-246-150h246v-86h-274c-2-14-4-28-4-42s2-28 4-42h274v-86h-246c46-88 138-150 246-150z" />
<glyph unicode="&#xea04;" glyph-name="ev_station" d="M342 256l170 298h-86v214l-170-320h86v-192zM768 598c24 0 42 18 42 42s-18 42-42 42-42-18-42-42 18-42 42-42zM844 716c20-20 30-46 30-76v-406c0-58-48-106-106-106s-106 48-106 106v214h-64v-320h-428v682c0 46 40 86 86 86h256c46 0 86-40 86-86v-298h42c46 0 86-40 86-86v-192c0-24 18-42 42-42s42 18 42 42v308c-14-6-26-8-42-8-58 0-106 48-106 106 0 46 28 84 68 100l-90 90 46 44z" />
<glyph unicode="&#xea05;" glyph-name="insert_invitation" d="M810 214v468h-596v-468h596zM682 982h86v-86h42c46 0 86-40 86-86v-596c0-46-40-86-86-86h-596c-48 0-86 40-86 86v596c0 46 38 86 86 86h42v86h86v-86h340v86zM726 512v-214h-214v214h214z" />
<glyph unicode="&#xea06;" glyph-name="event_available" d="M810 214v468h-596v-468h596zM810 896c46 0 86-40 86-86v-596c0-46-40-86-86-86h-596c-48 0-86 40-86 86v596c0 46 38 86 86 86h42v86h86v-86h340v86h86v-86h42zM706 552l-254-254-136 136 46 46 90-90 208 208z" />
<glyph unicode="&#xea07;" glyph-name="event_busy" d="M810 214v468h-596v-468h596zM810 896c46 0 86-40 86-86v-596c0-46-40-86-86-86h-596c-48 0-86 40-86 86v596c0 46 38 86 86 86h42v86h86v-86h340v86h86v-86h42zM398 298l-46 46 104 104-104 104 46 46 104-104 104 104 44-46-104-104 104-104-44-46-104 104z" />
<glyph unicode="&#xea08;" glyph-name="event_note" d="M598 426v-84h-300v84h300zM810 214v468h-596v-468h596zM810 896c46 0 86-40 86-86v-596c0-46-40-86-86-86h-596c-48 0-86 40-86 86v596c0 46 38 86 86 86h42v86h86v-86h340v86h86v-86h42zM726 598v-86h-428v86h428z" />
<glyph unicode="&#xea09;" glyph-name="event_seat" d="M726 470h-428v340c0 46 40 86 86 86h256c46 0 86-40 86-86v-340zM86 598h128v-128h-128v128zM810 598h128v-128h-128v128zM170 128v256h684v-256h-128v128h-428v-128h-128z" />
<glyph unicode="&#xea0a;" glyph-name="exit_to_app" d="M810 896c46 0 86-40 86-86v-596c0-46-40-86-86-86h-596c-48 0-86 40-86 86v170h86v-170h596v596h-596v-170h-86v170c0 46 38 86 86 86h596zM430 358l110 112h-412v84h412l-110 112 60 60 214-214-214-214z" />
<glyph unicode="&#xea0b;" glyph-name="expand_less" d="M512 682l256-256-60-60-196 196-196-196-60 60z" />
<glyph unicode="&#xea0c;" glyph-name="expand_more" d="M708 658l60-60-256-256-256 256 60 60 196-196z" />
<glyph unicode="&#xea0d;" glyph-name="explicit" d="M640 640v86h-256v-428h256v86h-170v86h170v84h-170v86h170zM810 896c46 0 86-40 86-86v-596c0-46-40-86-86-86h-596c-46 0-86 40-86 86v596c0 46 40 86 86 86h596z" />
<glyph unicode="&#xea0e;" glyph-name="explore" d="M606 418l162 350-350-162-162-350zM512 938c236 0 426-190 426-426s-190-426-426-426-426 190-426 426 190 426 426 426zM512 558c26 0 46-20 46-46s-20-46-46-46-46 20-46 46 20 46 46 46z" />
<glyph unicode="&#xea0f;" glyph-name="exposure" d="M854 170v684l-684-684h684zM214 810v-84h256v84h-256zM854 938c46 0 84-38 84-84v-684c0-46-38-84-84-84h-684c-46 0-84 38-84 84v684c0 46 38 84 84 84h684zM640 298h-86v86h86v86h86v-86h84v-86h-84v-84h-86v84z" />
<glyph unicode="&#xea10;" glyph-name="exposure_neg_1" d="M810 256h-84v454l-128-44v72l200 72h12v-554zM170 554h342v-84h-342v84z" />
<glyph unicode="&#xea11;" glyph-name="exposure_neg_2" d="M86 554h340v-84h-340v84zM702 810c103.361 0 172-46.875 172-150 0-16-2-34-8-50s-12-34-22-50c-21.913-35.061-50.22-70.22-80-100l-122-132h254v-72h-368v64l178 194c27.051 27.051 44.466 50.776 62 80 10.155 16.925 14 31.054 14 56 0 12 0 26-4 36-11.918 29.795-34.301 52-76 52-60.876 0-92-36.935-92-98h-92c0 51.336 20.69 92.69 48 120 31.385 31.385 73.692 50 136 50z" />
<glyph unicode="&#xea12;" glyph-name="exposure_plus_1" d="M854 256h-86v454l-128-44v72l200 72h14v-554zM426 726v-172h172v-84h-172v-172h-84v172h-172v84h172v172h84z" />
<glyph unicode="&#xea13;" glyph-name="exposure_plus_2" d="M342 726v-172h170v-84h-170v-172h-86v172h-170v84h170v172h86zM684 328h254v-72h-368v64l178 194c27.051 27.051 44.466 50.776 62 80 9.657 16.095 16 33.377 16 56 0 27.976-9.972 45.963-22 62-12.776 17.035-30.076 26-60 26-30.802 0-54.673-12.673-70-28-13.992-13.992-22-43.42-22-70h-92c0 51.336 20.69 92.69 48 120 16 16 34 30 58 38s50 12 80 12c28 0 50-4 72-10 20-8 40-16 54-30 26.805-22.976 46-61.985 46-110 0-40.444-14.717-72.348-32-100-10-16-20-34-34-50s-30-34-46-50z" />
<glyph unicode="&#xea14;" glyph-name="exposure_zero" d="M598 592c0 51.604-2.887 85.33-22 114-8 12-18 18-28 24s-22 8-36 8-26-2-36-8-20-12-28-24c-19.070-28.606-22-62.453-22-114v-114c0-68.64 9.322-117.593 50-142 10-6 22-8 36-8 33.536 0 49.61 12.416 64 34 17.74 26.61 24 68.817 24 116v114h-2zM336 578c0 137.059 42.756 232 176 232 93.018 0 143.69-47.837 164-124 8-30 14-64 14-108v-88h-2c0-79.48-15.373-138.051-48-180-16-18-34-34-56-42s-46-12-72-12-50 4-72 12-40 24-56 42c-34.893 39.254-48 102.511-48 180v88z" />
<glyph unicode="&#xea15;" glyph-name="extension" d="M874 554c58 0 108-48 108-106s-50-106-108-106h-64v-172c0-46-38-84-84-84h-162v64c0 64-52 114-116 114s-116-50-116-114v-64h-162c-46 0-84 38-84 84v162h64c64 0 114 52 114 116s-50 116-114 116h-64v162c0 46 38 84 84 84h172v64c0 58 48 108 106 108s106-50 106-108v-64h172c46 0 84-38 84-84v-172h64z" />
<glyph unicode="&#xea16;" glyph-name="face" d="M512 170c188 0 342 154 342 342 0 34-6 66-14 96-30-8-62-10-96-10-144 0-270 70-348 180-42-102-124-186-224-230-2-12-2-24-2-36 0-188 154-342 342-342zM512 938c236 0 426-190 426-426s-190-426-426-426-426 190-426 426 190 426 426 426zM640 522c30 0 54-22 54-52s-24-54-54-54-54 24-54 54 24 52 54 52zM384 522c30 0 54-22 54-52s-24-54-54-54-54 24-54 54 24 52 54 52z" />
<glyph unicode="&#xea17;" glyph-name="fast_forward" d="M554 768l364-256-364-256v512zM170 256v512l364-256z" />
<glyph unicode="&#xea18;" glyph-name="fast_rewind" d="M490 512l364 256v-512zM470 256l-364 256 364 256v-512z" />
<glyph unicode="&#xea19;" glyph-name="favorite" d="M512 114l-62 56c-220 200-364 330-364 492 0 132 102 234 234 234 74 0 146-36 192-90 46 54 118 90 192 90 132 0 234-102 234-234 0-162-144-294-364-494z" />
<glyph unicode="&#xea1a;" glyph-name="favorite_border" d="M516 232c204 184 338 306 338 430 0 86-64 148-150 148-66 0-130-42-152-100h-80c-22 58-86 100-152 100-86 0-150-62-150-148 0-124 134-246 338-430l4-4zM704 896c132 0 234-102 234-234 0-162-144-292-364-492l-62-56-62 54c-220 200-364 332-364 494 0 132 102 234 234 234 74 0 146-36 192-90 46 54 118 90 192 90z" />
<glyph unicode="&#xea1b;" glyph-name="featured_play_list" d="M512 726v84h-384v-84h384zM512 554v86h-384v-86h384zM896 896c46 0 86-40 86-86v-596c0-46-40-86-86-86h-768c-46 0-86 40-86 86v596c0 46 40 86 86 86h768z" />
<glyph unicode="&#xea1c;" glyph-name="featured_video" d="M512 512v298h-384v-298h384zM896 896c46 0 86-40 86-86v-596c0-46-40-86-86-86h-768c-46 0-86 40-86 86v596c0 46 40 86 86 86h768z" />
<glyph unicode="&#xea1d;" glyph-name="sms_failed" d="M554 598v170h-84v-170h84zM554 426v86h-84v-86h84zM854 938c46 0 84-38 84-84v-512c0-46-38-86-84-86h-598l-170-170v768c0 46 38 84 84 84h684z" />
<glyph unicode="&#xea1e;" glyph-name="fiber_dvr" d="M896 534v42c0 36-28 64-64 64h-150v-256h64v86h50l36-86h64l-38 90c22 10 38 34 38 60zM538 384l76 256h-64l-44-146-42 146h-64l74-256h64zM342 448v128c0 36-28 64-64 64h-150v-256h150c36 0 64 28 64 64zM896 896c48 0 86-38 86-86v-596c0-46-38-86-86-86h-768c-48 0-86 40-86 86v596c0 48 38 86 86 86h768zM192 576h86v-128h-86v128zM746 576h86v-42h-86v42z" />
<glyph unicode="&#xea1f;" glyph-name="fiber_manual_record" d="M170 512c0 188 154 342 342 342s342-154 342-342-154-342-342-342-342 154-342 342z" />
<glyph unicode="&#xea20;" glyph-name="fiber_new" d="M874 426v214h-52v-192h-48v150h-54v-150h-48v192h-54v-214c0-24 20-42 44-42h170c24 0 42 18 42 42zM576 586v54h-170v-256h170v54h-106v46h106v54h-106v48h106zM362 384v256h-52v-150l-108 150h-52v-256h52v150l110-150h50zM854 854c48 0 84-38 84-86v-512c0-48-36-86-84-86h-684c-48 0-84 38-84 86v512c0 48 36 86 84 86h684z" />
<glyph unicode="&#xea21;" glyph-name="fiber_pin" d="M854 384v256h-54v-150l-106 150h-54v-256h54v150l108-150h52zM534 384v256h-64v-256h64zM384 534v42c0 36-28 64-64 64h-150v-256h64v86h86c36 0 64 28 64 64zM854 854c48 0 84-38 84-86v-512c0-48-36-86-84-86h-684c-48 0-84 38-84 86v512c0 48 36 86 84 86h684zM234 576h86v-42h-86v42z" />
<glyph unicode="&#xea22;" glyph-name="fiber_smart_record" d="M726 842c148-38 256-170 256-330s-108-292-256-330v88c100 34 170 130 170 242s-70 208-170 242v88zM42 512c0 188 154 342 342 342s342-154 342-342-154-342-342-342-342 154-342 342z" />
<glyph unicode="&#xea23;" glyph-name="get_app" d="M214 256h596v-86h-596v86zM810 640l-298-298-298 298h170v256h256v-256h170z" />
<glyph unicode="&#xea24;" glyph-name="file_upload" d="M214 256h596v-86h-596v86zM384 342v256h-170l298 298 298-298h-170v-256h-256z" />
<glyph unicode="&#xea25;" glyph-name="filter" d="M896 298v598h-598v-598h598zM896 982c46 0 86-40 86-86v-598c0-46-40-84-86-84h-598c-46 0-84 38-84 84v598c0 46 38 86 84 86h598zM128 810v-682h682v-86h-682c-46 0-86 40-86 86v682h86zM680 584l152-200h-470l118 150 84-100z" />
<glyph unicode="&#xea26;" glyph-name="filter_1" d="M896 298v598h-598v-598h598zM896 982c46 0 86-40 86-86v-598c0-46-40-84-86-84h-598c-46 0-84 38-84 84v598c0 46 38 86 84 86h598zM598 384v342h-86v84h170v-426h-84zM128 810v-682h682v-86h-682c-46 0-86 40-86 86v682h86z" />
<glyph unicode="&#xea27;" glyph-name="filter_2" d="M726 470v-86h-256v170c0 48 38 86 84 86h86v86h-170v84h170c46 0 86-36 86-84v-86c0-48-40-86-86-86h-86v-84h172zM896 298v598h-598v-598h598zM896 982c46 0 86-40 86-86v-598c0-46-40-84-86-84h-598c-46 0-84 38-84 84v598c0 46 38 86 84 86h598zM128 810v-682h682v-86h-682c-46 0-86 40-86 86v682h86z" />
<glyph unicode="&#xea28;" glyph-name="filter_3" d="M726 470c0-48-40-86-86-86h-170v86h170v84h-86v86h86v86h-170v84h170c46 0 86-36 86-84v-64c0-36-28-64-64-64 36 0 64-28 64-64v-64zM128 810v-682h682v-86h-682c-46 0-86 40-86 86v682h86zM896 298v598h-598v-598h598zM896 982c46 0 86-40 86-86v-598c0-46-40-84-86-84h-598c-46 0-84 38-84 84v598c0 46 38 86 84 86h598z" />
<glyph unicode="&#xea29;" glyph-name="filter_4" d="M896 298v598h-598v-598h598zM896 982c46 0 86-40 86-86v-598c0-46-40-84-86-84h-598c-46 0-84 38-84 84v598c0 46 38 86 84 86h598zM640 384v170h-170v256h84v-170h86v170h86v-426h-86zM128 810v-682h682v-86h-682c-46 0-86 40-86 86v682h86z" />
<glyph unicode="&#xea2a;" glyph-name="filter_5" d="M726 470c0-48-40-86-86-86h-170v86h170v84h-170v256h256v-84h-172v-86h86c46 0 86-38 86-86v-84zM128 810v-682h682v-86h-682c-46 0-86 40-86 86v682h86zM896 298v598h-598v-598h598zM896 982c46 0 86-40 86-86v-598c0-46-40-84-86-84h-598c-46 0-84 38-84 84v598c0 46 38 86 84 86h598z" />
<glyph unicode="&#xea2b;" glyph-name="filter_6" d="M554 554v-84h86v84h-86zM554 384c-46 0-84 38-84 86v256c0 48 38 84 84 84h172v-84h-172v-86h86c46 0 86-38 86-86v-84c0-48-40-86-86-86h-86zM896 298v598h-598v-598h598zM896 982c46 0 86-40 86-86v-598c0-46-40-84-86-84h-598c-46 0-84 38-84 84v598c0 46 38 86 84 86h598zM128 810v-682h682v-86h-682c-46 0-86 40-86 86v682h86z" />
<glyph unicode="&#xea2c;" glyph-name="filter_7" d="M554 384h-84l170 342h-170v84h256v-84zM896 298v598h-598v-598h598zM896 982c46 0 86-40 86-86v-598c0-46-40-84-86-84h-598c-46 0-84 38-84 84v598c0 46 38 86 84 86h598zM128 810v-682h682v-86h-682c-46 0-86 40-86 86v682h86z" />
<glyph unicode="&#xea2d;" glyph-name="filter_8" d="M554 554v-84h86v84h-86zM554 726v-86h86v86h-86zM554 384c-46 0-84 38-84 86v64c0 36 28 64 64 64-36 0-64 28-64 64v64c0 48 38 84 84 84h86c46 0 86-36 86-84v-64c0-36-28-64-64-64 36 0 64-28 64-64v-64c0-48-40-86-86-86h-86zM896 298v598h-598v-598h598zM896 982c46 0 86-40 86-86v-598c0-46-40-84-86-84h-598c-46 0-84 38-84 84v598c0 46 38 86 84 86h598zM128 810v-682h682v-86h-682c-46 0-86 40-86 86v682h86z" />
<glyph unicode="&#xea2e;" glyph-name="filter_9" d="M640 640v86h-86v-86h86zM640 810c46 0 86-36 86-84v-256c0-48-40-86-86-86h-170v86h170v84h-86c-46 0-84 38-84 86v86c0 48 38 84 84 84h86zM896 298v598h-598v-598h598zM896 982c46 0 86-40 86-86v-598c0-46-40-84-86-84h-598c-46 0-84 38-84 84v598c0 46 38 86 84 86h598zM128 810v-682h682v-86h-682c-46 0-86 40-86 86v682h86z" />
<glyph unicode="&#xea2f;" glyph-name="filter_9_plus" d="M896 640v256h-598v-598h598v256h-86v-84h-84v84h-86v86h86v86h84v-86h86zM896 982c46 0 86-40 86-86v-598c0-46-40-84-86-84h-598c-46 0-84 38-84 84v598c0 46 38 86 84 86h598zM470 640h42v42h-42v-42zM598 512c0-48-40-86-86-86h-128v86h128v42h-42c-46 0-86 38-86 86v42c0 48 40 86 86 86h42c46 0 86-38 86-86v-170zM128 810v-682h682v-86h-682c-46 0-86 40-86 86v682h86z" />
<glyph unicode="&#xea30;" glyph-name="filter_b_and_w" d="M810 214v596h-298v-256zM810 896c46 0 86-40 86-86v-596c0-46-40-86-86-86h-596c-46 0-86 40-86 86v596c0 46 40 86 86 86h596zM512 554l-298-340h298v340z" />
<glyph unicode="&#xea31;" glyph-name="filter_center_focus" d="M512 640c70 0 128-58 128-128s-58-128-128-128-128 58-128 128 58 128 128 128zM810 214v170h86v-170c0-46-40-86-86-86h-170v86h170zM810 896c46 0 86-40 86-86v-170h-86v170h-170v86h170zM214 810v-170h-86v170c0 46 40 86 86 86h170v-86h-170zM214 384v-170h170v-86h-170c-46 0-86 40-86 86v170h86z" />
<glyph unicode="&#xea32;" glyph-name="filter_drama" d="M810 256c70 0 128 58 128 128s-58 128-128 128h-64v22c0 130-104 234-234 234-76 0-144-36-188-94 108-30 188-130 188-248h-86c0 94-76 172-170 172s-170-78-170-172 76-170 170-170h554zM826 596c110-8 198-100 198-212 0-118-96-214-214-214h-554c-142 0-256 114-256 256 0 132 100 240 228 254 54 102 160 174 284 174 156 0 284-110 314-258z" />
<glyph unicode="&#xea33;" glyph-name="filter_frames" d="M768 682h-512v-426h512zM854 170v598h-192l-148 150-150-150h-194v-598h684zM854 854c46 0 84-40 84-86v-598c0-46-38-84-84-84h-684c-46 0-84 38-84 84v598c0 46 38 86 84 86h172l170 170 170-170h172z" />
<glyph unicode="&#xea34;" glyph-name="terrain" d="M598 768l384-512h-940l256 342 192-256 68 50-120 162z" />
<glyph unicode="&#xea35;" glyph-name="filter_list" d="M256 470v84h512v-84h-512zM128 768h768v-86h-768v86zM426 256v86h172v-86h-172z" />
<glyph unicode="&#xea36;" glyph-name="filter_none" d="M896 298v598h-598v-598h598zM896 982c46 0 86-40 86-86v-598c0-46-40-84-86-84h-598c-46 0-84 38-84 84v598c0 46 38 86 84 86h598zM128 810v-682h682v-86h-682c-46 0-86 40-86 86v682h86z" />
<glyph unicode="&#xea37;" glyph-name="filter_tilt_shift" d="M242 182l60 60c48-36 106-60 168-68v-86c-86 8-164 42-228 94zM554 174c62 8 120 32 166 68l62-60c-64-52-142-86-228-94v86zM782 302c36 48 60 104 68 166h86c-8-86-42-162-94-226zM640 512c0-70-58-128-128-128s-128 58-128 128 58 128 128 128 128-58 128-128zM174 470c8-62 32-120 68-166l-60-62c-52 64-86 142-94 228h86zM242 722c-36-48-60-106-68-168h-86c8 86 42 164 94 228zM850 554c-8 62-32 120-68 168l60 60c52-64 86-142 94-228h-86zM782 842l-60-60c-48 36-106 60-168 68v86c86-8 164-42 228-94zM470 850c-62-8-120-32-168-68l-60 60c64 52 142 86 228 94v-86z" />
<glyph unicode="&#xea38;" glyph-name="filter_vintage" d="M512 342c94 0 170 76 170 170s-76 170-170 170-170-76-170-170 76-170 170-170zM98 274c0 98.433 62.724 204.242 164 238-12 4-24 12-36 18-82 48-128 132-128 220 76 44 174 48 256 0 12-6 24-14 34-22-2 14-4 26-4 40 0 94 52 178 128 222 76-44 128-128 128-222 0-14-2-26-4-40 10 8 22 16 34 22 82 48 180 44 256 0 0-88-46-172-128-220-12-6-24-14-36-18 12-4 24-12 36-18 82-48 128-132 128-220-76-44-174-48-256 0-12 6-24 14-34 22 2-14 4-26 4-40 0-94-52-178-128-222-76 44-128 128-128 222 0 14 2 26 4 40-10-8-22-16-34-22-82-48-180-44-256 0z" />
<glyph unicode="&#xea39;" glyph-name="find_in_page" d="M384 470c0 70 58 128 128 128s128-58 128-128-58-128-128-128-128 58-128 128zM854 188l-164 164c22 34 36 74 36 118 0 118-96 212-214 212s-214-94-214-212 96-214 214-214c44 0 84 14 118 36l188-190c-14-10-30-16-50-16h-512c-46 0-86 38-86 84l2 684c0 46 38 84 84 84h342l256-256v-494z" />
<glyph unicode="&#xea3a;" glyph-name="find_replace" d="M710 378l206-208-62-62-208 206c-50-36-110-58-176-58-82 0-158 34-212 88l-88-88v256h256l-108-108c38-38 94-62 152-62 104 0 188 72 208 170h86c-6-50-26-96-54-134zM470 768c-104 0-190-72-210-170h-86c20 144 146 256 296 256 82 0 156-34 210-88l88 88v-256h-256l108 108c-38 38-92 62-150 62z" />
<glyph unicode="&#xea3b;" glyph-name="fingerprint" d="M636 86h-6c-68 18-112 44-158 90-60 60-92 138-92 222 0 70 58 126 130 126s132-56 132-126c0-46 38-82 88-82s90 36 90 82c0 160-140 292-310 292-122 0-232-68-282-172-16-34-24-76-24-120 0-34 2-86 28-154 9.157-27.471-30.939-36.654-40-14-20 56-32 110-32 168 0 52 10 98 30 138 56 120 182 198 320 198 194 0 352-152 352-336 0-70-60-124-132-124s-130 54-130 124c0 46-40 84-90 84s-88-38-88-84c0-72 28-140 80-192 40-40 80-62 140-78 12-2 16-14 14-26-2-10-12-16-20-16zM530 398c0-97.515 80.578-182 192-182 19.928 0 65.546 14.722 70-12 2-12-6-24-18-26-24-4-46-4-52-4-50 0-96 12-132 38-64 44-102 112-102 186 0 12 10 22 22 22s20-10 20-22zM416 94c-6 0-10 2-14 6-38 38-58 62-86 114-30 52-46 116-46 184 0 126 108 230 242 230s242-104 242-230c0-12-10-20-22-20s-22 8-22 20c0 104-88 188-198 188s-198-84-198-188c0-62 12-118 38-164 28-50 48-70 80-104 8-8 8-22 0-30-4-4-10-6-16-6zM150 610c-17.624 0-27.785 15.691-18 32 42 60 96 108 160 140 134 70 306 70 440 0 64-32 118-78 160-138 6-10 4-24-6-30s-24-4-30 6c-38 54-86 94-144 124-122 62-278 64-400 0-58-30-108-72-146-126-4-6-10-8-16-8zM760 834c-4 0-8 0-10 2-82 42-154 60-238 60s-166-20-238-60c-23.381-14.029-43.278 24.033-20 38 80 44 166 64 258 64 90 0 170-20 258-64 18.211-10.927 10.406-40-10-40z" />
<glyph unicode="&#xea3c;" glyph-name="first_page" d="M256 768h86v-512h-86v512zM786 316l-60-60-256 256 256 256 60-60-196-196z" />
<glyph unicode="&#xea3d;" glyph-name="fitness_center" d="M878 390l60-62-90-90 60-62-60-60-62 60-90-90-62 60-60-60-62 60 152 152-366 366-152-152-60 62 60 60-60 62 90 90-60 62 60 60 62-60 90 90 62-60 60 60 62-60-152-152 366-366 152 152 60-62z" />
<glyph unicode="&#xea3e;" glyph-name="flare" d="M470 42v256h84v-256h-84zM240 300l92 92 60-60-92-92zM632 332l60 60 92-92-60-60zM512 640c70 0 128-58 128-128s-58-128-128-128-128 58-128 128 58 128 128 128zM726 554h256v-84h-256v84zM784 724l-92-92-60 60 92 92zM554 982v-256h-84v256h84zM392 692l-60-60-92 92 60 60zM298 554v-84h-256v84h256z" />
<glyph unicode="&#xea3f;" glyph-name="flash_auto" d="M718 698h100l-50 156zM810 938l138-384h-82l-30 86h-136l-30-86h-82l138 384h84zM128 938h426l-170-384h170l-298-512v384h-128v512z" />
<glyph unicode="&#xea40;" glyph-name="flash_off" d="M726 598l-66-114-362 362v92h428l-172-340h172zM140 896l670-672-54-54-176 178-154-262v384h-128v158l-212 214z" />
<glyph unicode="&#xea41;" glyph-name="flash_on" d="M298 938h428l-172-340h172l-300-512v384h-128v468z" />
<glyph unicode="&#xea42;" glyph-name="flight_land" d="M598 408c-136.472 37.528-274.090 73.91-412 110l-68 20v220l62-16 40-100 212-56v352l82-22 118-384 226-60c34-10 54-46 46-80-10-34-44-52-78-44zM106 214h812v-86h-812v86z" />
<glyph unicode="&#xea43;" glyph-name="flight_takeoff" d="M942 612c8-34-12-68-46-78-137.558-36.442-275.002-72.998-412-110l-226-60-68-20c-37.52 63.813-74.693 127.974-112 192l62 16 84-64 212 56-176 306 82 22 294-274 228 60c34 10 70-12 78-46zM106 214h812v-86h-812v86z" />
<glyph unicode="&#xea44;" glyph-name="flip" d="M810 128v86h86c0-46-40-86-86-86zM810 470v84h86v-84h-86zM640 810v86h86v-86h-86zM810 298v86h86v-86h-86zM470 42v940h84v-940h-84zM810 896c46 0 86-40 86-86h-86v86zM128 810c0 46 40 86 86 86h170v-86h-170v-596h170v-86h-170c-46 0-86 40-86 86v596zM810 640v86h86v-86h-86zM640 128v86h86v-86h-86z" />
<glyph unicode="&#xea45;" glyph-name="flip_to_back" d="M640 298v86h86v-86h-86zM640 810v86h86v-86h-86zM214 726v-512h512v-86h-512c-48 0-86 40-86 86v512h86zM810 298v86h86c0-46-40-86-86-86zM810 640v86h86v-86h-86zM810 470v84h86v-84h-86zM384 298c-48 0-86 40-86 86h86v-86zM554 896v-86h-84v86h84zM810 896c46 0 86-40 86-86h-86v86zM554 384v-86h-84v86h84zM384 896v-86h-86c0 46 38 86 86 86zM384 554v-84h-86v84h86zM384 726v-86h-86v86h86z" />
<glyph unicode="&#xea46;" glyph-name="flip_to_front" d="M298 128v86h86v-86h-86zM470 128v86h84v-86h-84zM810 384v426h-426v-426h426zM810 896c46 0 86-40 86-86v-426c0-46-40-86-86-86h-426c-48 0-86 40-86 86v426c0 46 38 86 86 86h426zM640 128v86h86v-86h-86zM128 640v86h86v-86h-86zM214 128c-48 0-86 40-86 86h86v-86zM128 298v86h86v-86h-86zM128 470v84h86v-84h-86z" />
<glyph unicode="&#xea47;" glyph-name="folder" d="M426 854l86-86h342c46 0 84-40 84-86v-426c0-46-38-86-84-86h-684c-46 0-84 40-84 86v512c0 46 38 86 84 86h256z" />
<glyph unicode="&#xea48;" glyph-name="folder_open" d="M854 256v426h-684v-426h684zM854 768c46 0 84-40 84-86v-426c0-46-38-86-84-86h-684c-46 0-84 40-84 86v512c0 46 38 86 84 86h256l86-86h342z" />
<glyph unicode="&#xea49;" glyph-name="folder_shared" d="M810 298v44c0 56-114 84-170 84s-170-28-170-84v-44h340zM640 640c-46 0-86-40-86-86s40-84 86-84 86 38 86 84-40 86-86 86zM854 768c46 0 84-40 84-86v-426c0-46-38-86-84-86h-684c-46 0-84 40-84 86v512c0 46 38 86 84 86h256l86-86h342z" />
<glyph unicode="&#xea4a;" glyph-name="folder_special" d="M766 298l-34 142 110 96-144 12-58 134-58-134-144-12 110-96-34-142 126 74zM854 768c46 0 84-40 84-86v-426c0-46-38-86-84-86h-684c-46 0-84 40-84 86v512c0 46 38 86 84 86h256l86-86h342z" />
<glyph unicode="&#xea4b;" glyph-name="font_download" d="M680 234h90l-218 556h-80l-218-556h90l48 128h240zM854 938c46 0 84-38 84-84v-684c0-46-38-84-84-84h-684c-46 0-84 38-84 84v684c0 46 38 84 84 84h684zM424 448l88 236 88-236h-176z" />
<glyph unicode="&#xea4c;" glyph-name="format_align_center" d="M128 896h768v-86h-768v86zM298 726h428v-86h-428v86zM128 470v84h768v-84h-768zM128 128v86h768v-86h-768zM298 384h428v-86h-428v86z" />
<glyph unicode="&#xea4d;" glyph-name="format_align_justify" d="M128 896h768v-86h-768v86zM128 640v86h768v-86h-768zM128 470v84h768v-84h-768zM128 298v86h768v-86h-768zM128 128v86h768v-86h-768z" />
<glyph unicode="&#xea4e;" glyph-name="format_align_left" d="M128 896h768v-86h-768v86zM128 128v86h768v-86h-768zM128 470v84h768v-84h-768zM640 726v-86h-512v86h512zM640 384v-86h-512v86h512z" />
<glyph unicode="&#xea4f;" glyph-name="format_align_right" d="M128 896h768v-86h-768v86zM384 640v86h512v-86h-512zM128 470v84h768v-84h-768zM384 298v86h512v-86h-512zM128 128v86h768v-86h-768z" />
<glyph unicode="&#xea50;" glyph-name="format_bold" d="M576 362c36 0 64 28 64 64s-28 64-64 64h-150v-128h150zM426 746v-128h128c36 0 64 28 64 64s-28 64-64 64h-128zM666 564c56-26 92-82 92-146 0-90-68-162-158-162h-302v598h268c96 0 170-76 170-172 0-44-28-90-70-118z" />
<glyph unicode="&#xea51;" glyph-name="format_clear" d="M256 810h598v-128h-248l-68-160-90 88 30 72h-102l-120 120v8zM140 810l12-10 616-618-54-54-242 242-66-156h-128l104 246-296 296z" />
<glyph unicode="&#xea52;" glyph-name="format_color_fill" d="M0 170h1024v-170h-1024v170zM810 534c0 0 86-94 86-150 0-46-40-86-86-86s-84 40-84 86c0 56 84 150 84 150zM222 598h410l-206 204zM706 642c26-26 26-66 0-90l-234-234c-12-12-30-20-46-20s-32 8-44 20l-236 234c-26 24-26 64 0 90l220 220-102 102 62 60z" />
</font>
</defs>
</svg>
